<svg width="1816" height="677" viewBox="0 0 1816 677" fill="none" xmlns="http://www.w3.org/2000/svg">
<path opacity="0.25" fill-rule="evenodd" clip-rule="evenodd" d="M1011.81 30.4243L0.929626 531.397L52.47 629.782H1199.66L1816 324.337V30.4243H1011.81Z" fill="url(#paint0_linear_92_4068)"/>
<rect width="215.995" height="141.358" rx="13.5704" transform="matrix(0.87241 0.488775 -2.27026e-08 1 962.199 112.978)" fill="url(#paint1_radial_92_4068)" fill-opacity="0.1"/>
<rect width="133.442" height="111.956" rx="13.5704" transform="matrix(0.87241 0.488775 -2.27026e-08 1 1192.9 481.639)" fill="url(#paint2_linear_92_4068)" fill-opacity="0.17"/>
<rect width="249.921" height="244.267" rx="13.5704" transform="matrix(0.87241 0.488775 -2.27026e-08 1 1265.27 112.978)" fill="url(#paint3_radial_92_4068)" fill-opacity="0.1"/>
<g clip-path="url(#clip0_92_4068)">
<rect width="322.296" height="378.839" rx="11.3086" transform="matrix(0.87241 0.488775 -2.27026e-08 1 1065.11 63.2197)" fill="url(#paint4_linear_92_4068)" fill-opacity="0.35"/>
<rect width="356.222" height="199.032" transform="matrix(0.87241 0.488775 -2.27026e-08 1 1065.11 63.2197)" fill="url(#paint5_linear_92_4068)"/>
<rect opacity="0.25" width="32.795" height="7.91605" transform="matrix(0.87241 0.488775 -2.27026e-08 1 1081.88 91.8413)" fill="white"/>
<rect width="21.4864" height="3.39259" transform="matrix(0.87241 0.488775 -2.27026e-08 1 1311.75 221.759)" fill="white" fill-opacity="0.25"/>
<rect width="21.4864" height="3.39259" transform="matrix(0.87241 0.488775 -2.27026e-08 1 1289.06 207.916)" fill="white" fill-opacity="0.25"/>
<rect width="21.4864" height="3.39259" transform="matrix(0.87241 0.488775 -2.27026e-08 1 1266.37 195.203)" fill="white" fill-opacity="0.25"/>
<path d="M1120.6 339.314L1123.16 340.745L1132.9 373.554L1129.68 371.746L1126.86 362.153L1116.84 356.542L1114.05 362.992L1110.83 361.184L1120.6 339.314ZM1126.18 359.08L1121.88 344.036L1117.45 354.185L1126.18 359.08Z" fill="url(#paint6_linear_92_4068)"/>
<line y1="-1.6963" x2="75.7679" y2="-1.6963" transform="matrix(0.87241 0.488775 -2.27026e-08 1 1149.95 384.424)" stroke="url(#paint7_linear_92_4068)" stroke-width="3.39259"/>
<line y1="-1.44447" x2="120.466" y2="-1.44447" transform="matrix(0.87241 0.488775 -2.27026e-08 1 1110.73 375.577)" stroke="url(#paint8_linear_92_4068)" stroke-width="2.88893"/>
<line y1="-1.44447" x2="120.466" y2="-1.44447" transform="matrix(0.87241 0.488775 -2.27026e-08 1 1110.73 388.095)" stroke="url(#paint9_linear_92_4068)" stroke-width="2.88893"/>
<line y1="-1.44447" x2="120.466" y2="-1.44447" transform="matrix(0.87241 0.488775 -2.27026e-08 1 1110.73 400.614)" stroke="url(#paint10_linear_92_4068)" stroke-width="2.88893"/>
<line y1="-1.44447" x2="120.466" y2="-1.44447" transform="matrix(0.87241 0.488775 -2.27026e-08 1 1110.73 414.25)" stroke="url(#paint11_linear_92_4068)" stroke-width="2.88893"/>
<line y1="-1.44447" x2="120.466" y2="-1.44447" transform="matrix(0.87241 0.488775 -2.27026e-08 1 1110.73 426.769)" stroke="url(#paint12_linear_92_4068)" stroke-width="2.88893"/>
<path d="M1110.73 437.843L1165.38 468.458" stroke="url(#paint13_linear_92_4068)" stroke-width="2.88893"/>
<rect width="99.1374" height="114.776" rx="11.5285" transform="matrix(0.869579 0.567683 -1.96166e-08 1 1250.68 316.942)" fill="url(#paint14_radial_92_4068)" fill-opacity="0.25"/>
<g clip-path="url(#clip1_92_4068)">
<rect width="99.1374" height="114.776" rx="11.5285" transform="matrix(0.869579 0.567683 -1.96166e-08 1 1231.38 319.74)" fill="url(#paint15_linear_92_4068)"/>
<path d="M1261.04 384.401L1301.34 490.985L1220.74 438.365L1261.04 384.401Z" fill="white" fill-opacity="0.15"/>
<path d="M1290.23 390.76L1329.99 502.242L1248.31 449.114L1290.23 390.76Z" fill="url(#paint16_linear_92_4068)"/>
</g>
</g>
<rect width="32.7413" height="32.7413" rx="1.92596" transform="matrix(0.87241 0.488775 -0.87241 0.488775 881.581 331.682)" fill="url(#paint17_linear_92_4068)" fill-opacity="0.25"/>
<rect width="32.7413" height="32.7413" rx="1.92596" transform="matrix(0.87241 0.488775 -0.87241 0.488775 921.906 354.274)" fill="url(#paint18_linear_92_4068)" fill-opacity="0.25"/>
<rect width="32.7413" height="32.7413" rx="1.92596" transform="matrix(0.87241 0.488775 -0.87241 0.488775 962.231 376.867)" fill="url(#paint19_linear_92_4068)" fill-opacity="0.25"/>
<rect width="32.7413" height="32.7413" rx="1.92596" transform="matrix(0.87241 0.488775 -0.87241 0.488775 1002.56 399.459)" fill="url(#paint20_linear_92_4068)" fill-opacity="0.25"/>
<rect width="32.7413" height="32.7413" rx="1.92596" transform="matrix(0.87241 0.488775 -0.87241 0.488775 1042.88 422.052)" fill="url(#paint21_linear_92_4068)" fill-opacity="0.25"/>
<rect width="32.7413" height="32.7413" rx="1.92596" transform="matrix(0.87241 0.488775 -0.87241 0.488775 1083.21 444.645)" fill="url(#paint22_linear_92_4068)" fill-opacity="0.25"/>
<rect width="32.7413" height="32.7413" rx="1.92596" transform="matrix(0.87241 0.488775 -0.87241 0.488775 1123.53 467.237)" fill="url(#paint23_linear_92_4068)" fill-opacity="0.25"/>
<rect width="32.7413" height="32.7413" rx="1.92596" transform="matrix(0.87241 0.488775 -0.87241 0.488775 841.255 354.274)" fill="url(#paint24_linear_92_4068)" fill-opacity="0.15"/>
<rect width="32.7413" height="32.7413" rx="1.92596" transform="matrix(0.87241 0.488775 -0.87241 0.488775 881.581 376.867)" fill="url(#paint25_linear_92_4068)" fill-opacity="0.15"/>
<rect width="32.7413" height="32.7413" rx="1.92596" transform="matrix(0.87241 0.488775 -0.87241 0.488775 921.906 399.459)" fill="url(#paint26_linear_92_4068)" fill-opacity="0.15"/>
<rect width="32.7413" height="32.7413" rx="1.92596" transform="matrix(0.87241 0.488775 -0.87241 0.488775 962.231 422.052)" fill="url(#paint27_linear_92_4068)" fill-opacity="0.15"/>
<rect width="32.7413" height="32.7413" rx="1.92596" transform="matrix(0.87241 0.488775 -0.87241 0.488775 1002.56 444.645)" fill="url(#paint28_linear_92_4068)" fill-opacity="0.15"/>
<rect width="32.7413" height="32.7413" rx="1.92596" transform="matrix(0.87241 0.488775 -0.87241 0.488775 1042.88 467.238)" fill="url(#paint29_linear_92_4068)" fill-opacity="0.15"/>
<rect width="32.7413" height="32.7413" rx="1.92596" transform="matrix(0.87241 0.488775 -0.87241 0.488775 1083.21 489.83)" fill="url(#paint30_linear_92_4068)" fill-opacity="0.15"/>
<rect width="32.7413" height="32.7413" rx="1.92596" transform="matrix(0.87241 0.488775 -0.87241 0.488775 800.93 376.867)" fill="url(#paint31_linear_92_4068)" fill-opacity="0.2"/>
<rect width="32.7413" height="32.7413" rx="1.92596" transform="matrix(0.87241 0.488775 -0.87241 0.488775 841.255 399.46)" fill="url(#paint32_linear_92_4068)" fill-opacity="0.2"/>
<rect width="125.187" height="32.7413" rx="1.92596" transform="matrix(0.87241 0.488775 -0.87241 0.488775 881.581 422.053)" fill="white" fill-opacity="0.2"/>
<rect width="32.7413" height="32.7413" rx="1.92596" transform="matrix(0.87241 0.488775 -0.87241 0.488775 1002.56 489.831)" fill="url(#paint33_linear_92_4068)" fill-opacity="0.07"/>
<rect width="32.7413" height="32.7413" rx="1.92596" transform="matrix(0.87241 0.488775 -0.87241 0.488775 1042.88 512.423)" fill="url(#paint34_linear_92_4068)" fill-opacity="0.05"/>
<defs>
<linearGradient id="paint0_linear_92_4068" x1="1876.09" y1="244.494" x2="1480.58" y2="803.482" gradientUnits="userSpaceOnUse">
<stop stop-color="white"/>
<stop offset="1" stop-color="white" stop-opacity="0"/>
</linearGradient>
<radialGradient id="paint1_radial_92_4068" cx="0" cy="0" r="1" gradientUnits="userSpaceOnUse" gradientTransform="translate(96.7972 41.836) rotate(116.108) scale(149.232 196.728)">
<stop stop-color="#FFF6F6" stop-opacity="0"/>
<stop offset="0.933359" stop-color="#FFF6F6"/>
</radialGradient>
<linearGradient id="paint2_linear_92_4068" x1="92.6379" y1="8.85803" x2="119.276" y2="109.776" gradientUnits="userSpaceOnUse">
<stop stop-color="#FFF6F6"/>
<stop offset="0.933359" stop-color="#FFF6F6" stop-opacity="0"/>
</linearGradient>
<radialGradient id="paint3_radial_92_4068" cx="0" cy="0" r="1" gradientUnits="userSpaceOnUse" gradientTransform="translate(161.857 104.102) rotate(87.3006) scale(134.243 143.652)">
<stop stop-color="#FFF6F6" stop-opacity="0"/>
<stop offset="0.933359" stop-color="#FFF6F6"/>
</radialGradient>
<linearGradient id="paint4_linear_92_4068" x1="161.148" y1="0" x2="161.148" y2="378.839" gradientUnits="userSpaceOnUse">
<stop offset="0.442901" stop-color="white"/>
<stop offset="1" stop-color="white" stop-opacity="0"/>
</linearGradient>
<linearGradient id="paint5_linear_92_4068" x1="178.111" y1="58.8095" x2="178.111" y2="139.811" gradientUnits="userSpaceOnUse">
<stop stop-color="#1F54CB"/>
<stop offset="1" stop-color="#1F54CB"/>
</linearGradient>
<linearGradient id="paint6_linear_92_4068" x1="1122.27" y1="344.891" x2="1114.46" y2="358.83" gradientUnits="userSpaceOnUse">
<stop stop-color="#1F54CB"/>
<stop offset="1" stop-color="#1F54CB"/>
</linearGradient>
<linearGradient id="paint7_linear_92_4068" x1="37.8839" y1="0.295478" x2="37.8839" y2="0.702452" gradientUnits="userSpaceOnUse">
<stop stop-color="#1F54CB"/>
<stop offset="1" stop-color="#1F54CB"/>
</linearGradient>
<linearGradient id="paint8_linear_92_4068" x1="60.2331" y1="0.295478" x2="60.2331" y2="0.702452" gradientUnits="userSpaceOnUse">
<stop stop-color="#1F54CB"/>
<stop offset="1" stop-color="#1F54CB"/>
</linearGradient>
<linearGradient id="paint9_linear_92_4068" x1="60.2331" y1="0.295478" x2="60.2331" y2="0.702452" gradientUnits="userSpaceOnUse">
<stop stop-color="#1F54CB"/>
<stop offset="1" stop-color="#1F54CB"/>
</linearGradient>
<linearGradient id="paint10_linear_92_4068" x1="60.2331" y1="0.295478" x2="60.2331" y2="0.702452" gradientUnits="userSpaceOnUse">
<stop stop-color="#1F54CB"/>
<stop offset="1" stop-color="#1F54CB"/>
</linearGradient>
<linearGradient id="paint11_linear_92_4068" x1="60.2331" y1="0.295478" x2="60.2331" y2="0.702452" gradientUnits="userSpaceOnUse">
<stop stop-color="#1F54CB"/>
<stop offset="1" stop-color="#1F54CB"/>
</linearGradient>
<linearGradient id="paint12_linear_92_4068" x1="60.2331" y1="0.295478" x2="60.2331" y2="0.702452" gradientUnits="userSpaceOnUse">
<stop stop-color="#1F54CB"/>
<stop offset="1" stop-color="#1F54CB"/>
</linearGradient>
<linearGradient id="paint13_linear_92_4068" x1="1138.05" y1="453.446" x2="1137.88" y2="453.756" gradientUnits="userSpaceOnUse">
<stop stop-color="#1F54CB"/>
<stop offset="1" stop-color="#1F54CB"/>
</linearGradient>
<radialGradient id="paint14_radial_92_4068" cx="0" cy="0" r="1" gradientUnits="userSpaceOnUse" gradientTransform="translate(44.428 33.9688) rotate(105.484) scale(112.903 96.9046)">
<stop stop-color="#FFF6F6" stop-opacity="0"/>
<stop offset="0.933359" stop-color="#FFF6F6"/>
</radialGradient>
<linearGradient id="paint15_linear_92_4068" x1="49.5687" y1="33.9136" x2="49.5687" y2="80.6244" gradientUnits="userSpaceOnUse">
<stop stop-color="#1F54CB"/>
<stop offset="1" stop-color="#1F54CB"/>
</linearGradient>
<linearGradient id="paint16_linear_92_4068" x1="1289.15" y1="390.06" x2="1249.92" y2="450.161" gradientUnits="userSpaceOnUse">
<stop stop-color="#1048C5"/>
<stop offset="1" stop-color="#1F54CB" stop-opacity="0.32"/>
</linearGradient>
<linearGradient id="paint17_linear_92_4068" x1="16.3706" y1="0" x2="16.3706" y2="32.7413" gradientUnits="userSpaceOnUse">
<stop stop-color="white"/>
<stop offset="0.596875" stop-color="white"/>
<stop offset="1" stop-color="white" stop-opacity="0.66"/>
</linearGradient>
<linearGradient id="paint18_linear_92_4068" x1="16.3706" y1="0" x2="16.3706" y2="32.7413" gradientUnits="userSpaceOnUse">
<stop stop-color="white"/>
<stop offset="0.596875" stop-color="white"/>
<stop offset="1" stop-color="white" stop-opacity="0.66"/>
</linearGradient>
<linearGradient id="paint19_linear_92_4068" x1="16.3706" y1="0" x2="16.3706" y2="32.7413" gradientUnits="userSpaceOnUse">
<stop stop-color="white"/>
<stop offset="0.596875" stop-color="white"/>
<stop offset="1" stop-color="white" stop-opacity="0.66"/>
</linearGradient>
<linearGradient id="paint20_linear_92_4068" x1="16.3706" y1="0" x2="16.3706" y2="32.7413" gradientUnits="userSpaceOnUse">
<stop stop-color="white"/>
<stop offset="0.596875" stop-color="white"/>
<stop offset="1" stop-color="white" stop-opacity="0.66"/>
</linearGradient>
<linearGradient id="paint21_linear_92_4068" x1="16.3706" y1="0" x2="16.3706" y2="32.7413" gradientUnits="userSpaceOnUse">
<stop stop-color="white"/>
<stop offset="0.596875" stop-color="white"/>
<stop offset="1" stop-color="white" stop-opacity="0.66"/>
</linearGradient>
<linearGradient id="paint22_linear_92_4068" x1="16.3706" y1="0" x2="16.3706" y2="32.7413" gradientUnits="userSpaceOnUse">
<stop stop-color="white"/>
<stop offset="0.596875" stop-color="white"/>
<stop offset="1" stop-color="white" stop-opacity="0.66"/>
</linearGradient>
<linearGradient id="paint23_linear_92_4068" x1="16.3706" y1="0" x2="16.3706" y2="32.7413" gradientUnits="userSpaceOnUse">
<stop stop-color="white"/>
<stop offset="0.596875" stop-color="white"/>
<stop offset="1" stop-color="white" stop-opacity="0.66"/>
</linearGradient>
<linearGradient id="paint24_linear_92_4068" x1="16.3706" y1="0" x2="16.3706" y2="32.7413" gradientUnits="userSpaceOnUse">
<stop stop-color="white"/>
<stop offset="0.596875" stop-color="white" stop-opacity="0.69"/>
<stop offset="1" stop-color="white" stop-opacity="0.32"/>
</linearGradient>
<linearGradient id="paint25_linear_92_4068" x1="16.3706" y1="0" x2="16.3706" y2="32.7413" gradientUnits="userSpaceOnUse">
<stop stop-color="white"/>
<stop offset="0.596875" stop-color="white" stop-opacity="0.69"/>
<stop offset="1" stop-color="white" stop-opacity="0.32"/>
</linearGradient>
<linearGradient id="paint26_linear_92_4068" x1="16.3706" y1="0" x2="16.3706" y2="32.7413" gradientUnits="userSpaceOnUse">
<stop stop-color="white"/>
<stop offset="0.596875" stop-color="white" stop-opacity="0.69"/>
<stop offset="1" stop-color="white" stop-opacity="0.32"/>
</linearGradient>
<linearGradient id="paint27_linear_92_4068" x1="16.3706" y1="0" x2="16.3706" y2="32.7413" gradientUnits="userSpaceOnUse">
<stop stop-color="white"/>
<stop offset="0.596875" stop-color="white" stop-opacity="0.69"/>
<stop offset="1" stop-color="white" stop-opacity="0.32"/>
</linearGradient>
<linearGradient id="paint28_linear_92_4068" x1="16.3706" y1="0" x2="16.3706" y2="32.7413" gradientUnits="userSpaceOnUse">
<stop stop-color="white"/>
<stop offset="0.596875" stop-color="white" stop-opacity="0.69"/>
<stop offset="1" stop-color="white" stop-opacity="0.32"/>
</linearGradient>
<linearGradient id="paint29_linear_92_4068" x1="16.3706" y1="0" x2="16.3706" y2="32.7413" gradientUnits="userSpaceOnUse">
<stop stop-color="white"/>
<stop offset="0.596875" stop-color="white" stop-opacity="0.69"/>
<stop offset="1" stop-color="white" stop-opacity="0.32"/>
</linearGradient>
<linearGradient id="paint30_linear_92_4068" x1="16.3706" y1="0" x2="16.3706" y2="32.7413" gradientUnits="userSpaceOnUse">
<stop stop-color="white"/>
<stop offset="0.596875" stop-color="white" stop-opacity="0.69"/>
<stop offset="1" stop-color="white" stop-opacity="0.32"/>
</linearGradient>
<linearGradient id="paint31_linear_92_4068" x1="16.3706" y1="0" x2="16.3706" y2="32.7413" gradientUnits="userSpaceOnUse">
<stop stop-color="white"/>
<stop offset="0.596875" stop-color="white" stop-opacity="0.34"/>
<stop offset="1" stop-color="white" stop-opacity="0"/>
</linearGradient>
<linearGradient id="paint32_linear_92_4068" x1="16.3706" y1="0" x2="16.3706" y2="32.7413" gradientUnits="userSpaceOnUse">
<stop stop-color="white"/>
<stop offset="0.596875" stop-color="white" stop-opacity="0.34"/>
<stop offset="1" stop-color="white" stop-opacity="0"/>
</linearGradient>
<linearGradient id="paint33_linear_92_4068" x1="16.3706" y1="0" x2="16.3706" y2="32.7413" gradientUnits="userSpaceOnUse">
<stop stop-color="white"/>
<stop offset="0.596875" stop-color="white" stop-opacity="0.34"/>
<stop offset="1" stop-color="white" stop-opacity="0"/>
</linearGradient>
<linearGradient id="paint34_linear_92_4068" x1="16.3706" y1="0" x2="16.3706" y2="32.7413" gradientUnits="userSpaceOnUse">
<stop stop-color="white"/>
<stop offset="0.596875" stop-color="white" stop-opacity="0.34"/>
<stop offset="1" stop-color="white" stop-opacity="0"/>
</linearGradient>
<clipPath id="clip0_92_4068">
<rect width="322.296" height="378.839" rx="11.3086" transform="matrix(0.87241 0.488775 -2.27026e-08 1 1065.11 63.2197)" fill="white"/>
</clipPath>
<clipPath id="clip1_92_4068">
<rect width="99.1374" height="114.776" rx="11.5285" transform="matrix(0.869579 0.567683 -1.96166e-08 1 1231.38 319.74)" fill="white"/>
</clipPath>
</defs>
</svg>
