<svg width="1079" height="534" viewBox="0 0 1079 534" fill="none" xmlns="http://www.w3.org/2000/svg">
<circle cx="61.083" cy="12.1353" r="12.1353" fill="#ED1C24"/>
<circle cx="59.9292" cy="483.947" r="7.01758" fill="#ED1C24"/>
<path d="M59.9292 31.1445V163.148C59.9292 169.776 65.3018 175.148 71.9292 175.148H328.398C335.025 175.148 340.398 169.776 340.398 163.148V108.665C340.398 102.038 345.771 96.6655 352.398 96.6655H603.773C610.401 96.6655 615.773 102.038 615.773 108.665V163.148C615.773 169.776 621.146 175.148 627.773 175.148H882.788C889.416 175.148 894.788 169.776 894.788 163.148V108.665C894.788 102.038 900.161 96.6655 906.788 96.6655H1065.34C1071.97 96.6655 1077.34 102.038 1077.34 108.665V520.856C1077.34 527.483 1071.97 532.856 1065.34 532.856H71.9292C65.3018 532.856 59.9292 527.483 59.9292 520.856V496.025" stroke="#E8E8E8" stroke-width="2" stroke-linecap="round"/>
<circle cx="63.7905" cy="175.148" r="63.0266" fill="#D7E8F1"/>
<circle cx="342.098" cy="175.148" r="63.0266" fill="#D7E8F1"/>
<circle cx="620.406" cy="175.148" r="63.0266" fill="#D7E8F1"/>
<circle cx="898.711" cy="175.144" r="63.0266" fill="#D7E8F1"/>
</svg>
