<svg width="1240" height="239" viewBox="0 0 1240 239" fill="none" xmlns="http://www.w3.org/2000/svg">
<circle cx="60.657" cy="12.1353" r="12.1353" fill="#ED1C24"/>
<path d="M59.5032 31.1445V163.148C59.5032 169.776 64.8758 175.148 71.5032 175.148H327.972C334.599 175.148 339.972 169.776 339.972 163.148V108.665C339.972 102.038 345.344 96.6655 351.972 96.6655H603.347C609.975 96.6655 615.347 102.038 615.347 108.665V163.148C615.347 169.776 620.72 175.148 627.347 175.148H882.362C888.99 175.148 894.362 169.776 894.362 163.148V108.665C894.362 102.038 899.735 96.6655 906.362 96.6655H1162.59C1169.22 96.6655 1174.59 102.038 1174.59 108.665V175.148" stroke="#E8E8E8" stroke-width="2" stroke-linecap="round"/>
<circle cx="63.3645" cy="175.148" r="63.0266" fill="#D6DFF8"/>
<circle cx="341.672" cy="175.148" r="63.0266" fill="#D6DFF8"/>
<circle cx="619.98" cy="175.148" r="63.0266" fill="#D6DFF8"/>
<circle cx="898.288" cy="175.148" r="63.0266" fill="#D6DFF8"/>
<circle cx="1176.59" cy="175.148" r="63.0266" fill="#D6DFF8"/>
</svg>
