<svg width="1079" height="534" viewBox="0 0 1079 534" fill="none" xmlns="http://www.w3.org/2000/svg">
<circle cx="61.1354" cy="12.1353" r="12.1353" fill="#ED1C24"/>
<circle cx="59.9816" cy="483.947" r="7.01758" fill="#ED1C24"/>
<path d="M59.9816 31.1445V163.148C59.9816 169.776 65.3541 175.148 71.9816 175.148H328.45C335.078 175.148 340.45 169.776 340.45 163.148V108.665C340.45 102.038 345.823 96.6655 352.45 96.6655H603.826C610.453 96.6655 615.826 102.038 615.826 108.665V163.148C615.826 169.776 621.198 175.148 627.826 175.148H882.841C889.468 175.148 894.841 169.776 894.841 163.148V108.665C894.841 102.038 900.213 96.6655 906.841 96.6655H1065.4C1072.02 96.6655 1077.4 102.038 1077.4 108.665V520.856C1077.4 527.483 1072.02 532.856 1065.4 532.856H71.9816C65.3542 532.856 59.9816 527.483 59.9816 520.856V496.025" stroke="#E8E8E8" stroke-width="2" stroke-linecap="round"/>
<circle cx="63.8429" cy="175.148" r="63.0266" fill="#D6DFF8"/>
<circle cx="342.151" cy="175.148" r="63.0266" fill="#D6DFF8"/>
<circle cx="620.459" cy="175.148" r="63.0266" fill="#D6DFF8"/>
<circle cx="898.764" cy="175.144" r="63.0266" fill="#D6DFF8"/>
</svg>
