<svg width="604" height="553" viewBox="0 0 604 553" fill="none" xmlns="http://www.w3.org/2000/svg">
<path d="M380.111 463.222C348.497 474.823 314.154 476.788 281.423 468.871C248.693 460.953 219.045 443.507 196.23 418.74C173.414 393.972 158.455 362.996 153.245 329.726C148.034 296.457 152.806 262.39 166.957 231.833L169.535 233.027C155.62 263.074 150.927 296.573 156.051 329.287C161.174 362.001 175.884 392.461 198.319 416.815C220.754 441.17 249.907 458.324 282.091 466.11C314.276 473.895 348.046 471.962 379.132 460.555L380.111 463.222Z" fill="#D9D9D9"/>
<path d="M444.583 189.044C466.018 211.487 480.911 239.362 487.653 269.656C494.394 299.95 492.728 331.51 482.833 360.926L480.141 360.02C489.87 331.095 491.509 300.062 484.88 270.273C478.251 240.485 463.607 213.075 442.529 191.006L444.583 189.044Z" fill="#D9D9D9"/>
<path d="M282.849 190.184C300.188 184.915 318.553 183.973 336.34 187.438C354.128 190.904 370.796 198.672 384.888 210.065C398.981 221.458 410.07 236.128 417.186 252.794C424.301 269.46 427.228 287.615 425.709 305.673" stroke="#E8E8E8" stroke-width="0.558854" stroke-dasharray="2.43 2.43"/>
<circle cx="321.456" cy="303.383" r="248.516" fill="url(#paint0_linear_125_1385)" stroke="#E8E8E8" stroke-width="1.11771" stroke-linecap="round" stroke-dasharray="2.43 2.43"/>
<circle cx="116.716" cy="501.285" r="7.578" fill="#0C2660"/>
<circle cx="495.833" cy="207.153" r="7.578" fill="#0C2660"/>
<circle cx="523.423" cy="516.441" r="7.578" fill="#0C2660"/>
<path d="M116.715 479.235L116.715 324.206" stroke="#0D348B" stroke-width="1.2137" stroke-linecap="round" stroke-dasharray="1.62 1.62"/>
<path d="M523.423 499.348L523.423 446.791" stroke="#0D348B" stroke-width="1.2137" stroke-linecap="round" stroke-dasharray="1.62 1.62"/>
<path d="M495.833 191.713L495.833 139.156" stroke="#0D348B" stroke-width="1.2137" stroke-linecap="round" stroke-dasharray="1.62 1.62"/>
<rect width="284.711" height="211.907" rx="6.97937" transform="matrix(0.872988 0.487741 -2.27658e-08 1 46.9041 0.174561)" fill="url(#paint1_linear_125_1385)" fill-opacity="0.5"/>
<rect width="284.711" height="211.907" rx="6.97937" transform="matrix(0.872988 0.487741 -2.27658e-08 1 24.6794 11.6954)" fill="url(#paint2_linear_125_1385)"/>
<rect width="284.711" height="211.907" rx="6.97937" transform="matrix(0.872988 0.487741 -2.27658e-08 1 24.6794 11.6954)" fill="url(#paint3_linear_125_1385)"/>
<rect width="284.711" height="211.907" rx="6.97937" transform="matrix(0.872988 0.487741 -2.27658e-08 1 0.53125 21.6392)" fill="url(#paint4_linear_125_1385)"/>
<path d="M0.53125 48.2025L249.08 187.068L249.08 391.996C249.08 395.85 246.352 397.451 242.987 395.571L6.62415 263.514C3.25913 261.634 0.531245 256.985 0.531245 253.131L0.53125 48.2025Z" fill="url(#paint5_linear_125_1385)"/>
<path d="M0.53125 48.2025L53.1158 77.5817L53.1158 289.489L6.62416 263.514C3.25914 261.634 0.531245 256.985 0.531245 253.131L0.53125 48.2025Z" fill="url(#paint6_linear_125_1385)"/>
<rect opacity="0.25" width="36.1208" height="10.0578" rx="4.88556" transform="matrix(0.872988 0.487741 -2.27658e-08 1 11.0562 75.167)" fill="white"/>
<rect opacity="0.25" width="23.3557" height="6.5034" rx="3.2517" transform="matrix(0.872988 0.487741 -2.27658e-08 1 16.6292 108.104)" fill="white"/>
<rect opacity="0.25" width="23.3557" height="6.5034" rx="3.2517" transform="matrix(0.872988 0.487741 -2.27658e-08 1 16.6292 119.499)" fill="white"/>
<rect opacity="0.25" width="23.3557" height="6.5034" rx="3.2517" transform="matrix(0.872988 0.487741 -2.27658e-08 1 16.6292 130.891)" fill="white"/>
<rect opacity="0.25" width="23.3557" height="6.5034" rx="3.2517" transform="matrix(0.872988 0.487741 -2.27658e-08 1 16.6292 194.311)" fill="white"/>
<rect width="23.3557" height="6.5034" rx="3.2517" transform="matrix(0.872988 0.487741 -2.27658e-08 1 74.2361 110.554)" fill="#1F54CB"/>
<rect width="23.3557" height="6.5034" rx="3.2517" transform="matrix(0.872988 0.487741 -2.27658e-08 1 109.865 128.441)" fill="#1F54CB"/>
<rect width="23.3557" height="6.5034" rx="3.2517" transform="matrix(0.872988 0.487741 -2.27658e-08 1 146.837 146.344)" fill="#1F54CB"/>
<rect width="23.3557" height="6.5034" rx="3.2517" transform="matrix(0.872988 0.487741 -2.27658e-08 1 187.507 166.614)" fill="#1F54CB"/>
<rect opacity="0.25" width="23.3557" height="6.5034" rx="3.2517" transform="matrix(0.872988 0.487741 -2.27658e-08 1 16.6292 142.28)" fill="white"/>
<rect opacity="0.25" width="23.3557" height="6.5034" rx="3.2517" transform="matrix(0.872988 0.487741 -2.27658e-08 1 16.6292 205.697)" fill="white"/>
<rect width="88.3095" height="102.24" rx="4.38601" transform="matrix(0.870155 0.566652 -1.96778e-08 1 103.594 157.803)" fill="url(#paint7_radial_125_1385)" fill-opacity="0.25"/>
<g clip-path="url(#clip0_125_1385)">
<rect width="88.3095" height="102.24" rx="4.38601" transform="matrix(0.870155 0.566652 -1.96778e-08 1 74.2361 157.803)" fill="url(#paint8_linear_125_1385)"/>
<path d="M85.5266 182.387L100.87 222.919L70.1836 202.936L85.5266 182.387Z" fill="white" fill-opacity="0.15"/>
<path d="M96.6379 184.795L111.778 227.19L80.6821 207.015L96.6379 184.795Z" fill="url(#paint9_linear_125_1385)"/>
</g>
<path d="M472.058 370.024L475.094 451.285L591.417 338.733C591.899 338.267 592.154 337.615 592.116 336.946L589.368 288.409C589.272 286.703 587.417 285.691 585.93 286.533L545.076 309.684C544.354 310.094 543.907 310.86 543.907 311.69V323.632C543.907 324.437 543.487 325.183 542.8 325.601L473.163 367.968C472.45 368.402 472.027 369.189 472.058 370.024Z" fill="url(#paint10_linear_125_1385)" stroke="url(#paint11_linear_125_1385)" stroke-width="1.15275"/>
<path d="M585.974 400.64L476.161 462.857C474.483 463.808 472.448 462.4 472.747 460.494L486.062 375.609C486.173 374.906 486.601 374.293 487.224 373.949L599.028 312.1C600.728 311.159 602.759 312.615 602.412 314.528L587.106 399.045C586.984 399.719 586.569 400.303 585.974 400.64Z" fill="url(#paint12_linear_125_1385)" stroke="url(#paint13_linear_125_1385)" stroke-width="1.15275"/>
<rect opacity="0.25" width="134.297" height="87.7047" rx="2.58355" transform="matrix(0.872988 0.487741 -2.27658e-08 1 461.251 11.0818)" fill="url(#paint14_linear_125_1385)"/>
<rect width="134.297" height="87.7047" rx="2.58355" transform="matrix(0.872988 0.487741 -2.27658e-08 1 446.762 16.8229)" fill="url(#paint15_linear_125_1385)"/>
<path d="M472.007 76.9423L485.209 75.3817L485.209 78.7934L476.031 80.0274L485.209 91.7505L485.209 95.3074L472.007 78.6119L472.007 76.9423Z" fill="white"/>
<path d="M512.008 84.4304L496.921 101.489L493.841 99.7104L508.897 82.6338L512.008 84.4304Z" fill="white"/>
<path d="M529.225 111.647L516.024 113.098L516.024 109.542L525.202 108.416L516.024 96.5844L516.024 93.1727L529.225 109.977L529.225 111.647Z" fill="white"/>
<defs>
<linearGradient id="paint0_linear_125_1385" x1="321.456" y1="54.3077" x2="321.456" y2="552.458" gradientUnits="userSpaceOnUse">
<stop stop-color="white" stop-opacity="0.93"/>
<stop offset="1" stop-color="#D3DDFB"/>
</linearGradient>
<linearGradient id="paint1_linear_125_1385" x1="142.355" y1="62.6139" x2="142.355" y2="148.855" gradientUnits="userSpaceOnUse">
<stop stop-color="#92B1F5"/>
<stop offset="1" stop-color="#6892F0"/>
</linearGradient>
<linearGradient id="paint2_linear_125_1385" x1="142.355" y1="62.6139" x2="142.355" y2="148.855" gradientUnits="userSpaceOnUse">
<stop stop-color="#92B1F5"/>
<stop offset="1" stop-color="#6892F0"/>
</linearGradient>
<linearGradient id="paint3_linear_125_1385" x1="142.355" y1="62.6139" x2="142.355" y2="148.855" gradientUnits="userSpaceOnUse">
<stop stop-color="#92B1F5"/>
<stop offset="1" stop-color="#6892F0"/>
</linearGradient>
<linearGradient id="paint4_linear_125_1385" x1="142.355" y1="62.6139" x2="142.355" y2="148.855" gradientUnits="userSpaceOnUse">
<stop stop-color="#AFC8FF"/>
<stop offset="1" stop-color="#1F54CB"/>
</linearGradient>
<linearGradient id="paint5_linear_125_1385" x1="124.806" y1="180.249" x2="88.0851" y2="245.974" gradientUnits="userSpaceOnUse">
<stop stop-color="#406DD3"/>
<stop offset="1" stop-color="#4074E9"/>
</linearGradient>
<linearGradient id="paint6_linear_125_1385" x1="26.8236" y1="125.506" x2="-9.89719" y2="191.231" gradientUnits="userSpaceOnUse">
<stop stop-color="#0E3387"/>
<stop offset="1" stop-color="#1A4BB8"/>
</linearGradient>
<radialGradient id="paint7_radial_125_1385" cx="0" cy="0" r="1" gradientUnits="userSpaceOnUse" gradientTransform="translate(39.5755 30.2587) rotate(105.484) scale(100.572 86.3206)">
<stop stop-color="#FFF6F6" stop-opacity="0"/>
<stop offset="0.933359" stop-color="#FFF6F6"/>
</radialGradient>
<linearGradient id="paint8_linear_125_1385" x1="44.1548" y1="30.2095" x2="44.1548" y2="71.8185" gradientUnits="userSpaceOnUse">
<stop stop-color="#1F54CB"/>
<stop offset="1" stop-color="#1F54CB"/>
</linearGradient>
<linearGradient id="paint9_linear_125_1385" x1="96.23" y1="184.529" x2="81.3178" y2="207.429" gradientUnits="userSpaceOnUse">
<stop stop-color="#1048C5"/>
<stop offset="1" stop-color="#1F54CB" stop-opacity="0.32"/>
</linearGradient>
<linearGradient id="paint10_linear_125_1385" x1="532.091" y1="284.704" x2="532.091" y2="451.285" gradientUnits="userSpaceOnUse">
<stop stop-color="#1F54CB"/>
<stop offset="1" stop-color="#072870"/>
</linearGradient>
<linearGradient id="paint11_linear_125_1385" x1="532.091" y1="338.039" x2="532.091" y2="411.499" gradientUnits="userSpaceOnUse">
<stop stop-color="#0037B3"/>
<stop offset="1" stop-color="#0C2660"/>
</linearGradient>
<linearGradient id="paint12_linear_125_1385" x1="537.643" y1="355.684" x2="537.643" y2="418.953" gradientUnits="userSpaceOnUse">
<stop stop-color="#406DD3"/>
<stop offset="1" stop-color="#4074E9"/>
</linearGradient>
<linearGradient id="paint13_linear_125_1385" x1="537.643" y1="355.684" x2="553.44" y2="405.091" gradientUnits="userSpaceOnUse">
<stop stop-color="#A3BCF3"/>
<stop offset="0.914404" stop-color="#F9F9F9" stop-opacity="0"/>
</linearGradient>
<linearGradient id="paint14_linear_125_1385" x1="-28.2527" y1="39.1813" x2="137.504" y2="109.608" gradientUnits="userSpaceOnUse">
<stop stop-color="#4074E9"/>
<stop offset="0.933359" stop-color="#1F54CB"/>
</linearGradient>
<linearGradient id="paint15_linear_125_1385" x1="-28.2527" y1="39.1813" x2="137.504" y2="109.608" gradientUnits="userSpaceOnUse">
<stop stop-color="#4074E9"/>
<stop offset="0.933359" stop-color="#1F54CB"/>
</linearGradient>
<clipPath id="clip0_125_1385">
<rect width="88.3095" height="102.24" rx="4.38601" transform="matrix(0.870155 0.566652 -1.96778e-08 1 74.2361 157.803)" fill="white"/>
</clipPath>
</defs>
</svg>
