<svg width="737" height="425" viewBox="0 0 737 425" fill="none" xmlns="http://www.w3.org/2000/svg">
<path d="M104.429 277.849C96.8497 273.473 92.3849 267.616 91.9153 261.433L85.7524 180.293C85.2257 173.36 89.7661 166.617 98.2664 161.709L233.277 83.7606C245.234 76.857 264.621 76.857 276.578 83.7606L591.812 265.761C603.769 272.664 603.769 283.857 591.812 290.761L380.953 412.5C368.995 419.404 349.609 419.404 337.651 412.5L104.429 277.849Z" fill="url(#paint0_linear_92_3995)"/>
<ellipse rx="44.4211" ry="44.5" transform="matrix(0.866025 -0.5 0.866025 0.5 236.707 265.079)" fill="white"/>
<ellipse rx="44.4211" ry="44.5" transform="matrix(0.866025 -0.5 0.866025 0.5 343.707 327.079)" fill="white"/>
<rect width="268.523" height="89" transform="matrix(0.866025 -0.5 0.866025 0.5 265.511 204.148)" fill="url(#paint1_linear_92_3995)"/>
<rect width="268.523" height="89" transform="matrix(0.866025 -0.5 0.866025 0.5 372.51 265.148)" fill="url(#paint2_linear_92_3995)"/>
<rect width="146.739" height="37" transform="matrix(0.866025 -0.5 0.866025 0.5 366.371 171.229)" fill="url(#paint3_linear_92_3995)"/>
<rect width="146.739" height="37" transform="matrix(0.866025 -0.5 0.866025 0.5 473.371 233.229)" fill="url(#paint4_linear_92_3995)"/>
<ellipse rx="18.4672" ry="18.5" transform="matrix(0.866025 -0.5 0.866025 0.5 346.478 201.192)" fill="#EFEFEF"/>
<ellipse rx="18.4672" ry="18.5" transform="matrix(0.866025 -0.5 0.866025 0.5 453.478 263.192)" fill="#EFEFEF"/>
<path d="M226.042 271.068L246.808 271.079L243.313 249.097" stroke="#9E9E9E" stroke-width="6" stroke-linecap="round" stroke-linejoin="round"/>
<path d="M366.376 327.09L319.652 327.066M342.993 313.59L343.035 340.566" stroke="#9E9E9E" stroke-width="4" stroke-linecap="round"/>
<defs>
<linearGradient id="paint0_linear_92_3995" x1="127.848" y1="144.63" x2="307.115" y2="455.13" gradientUnits="userSpaceOnUse">
<stop stop-color="#E6E6E6"/>
<stop offset="1" stop-color="white" stop-opacity="0"/>
</linearGradient>
<linearGradient id="paint1_linear_92_3995" x1="15.021" y1="66.9191" x2="147.899" y2="189.429" gradientUnits="userSpaceOnUse">
<stop stop-color="white"/>
<stop offset="1" stop-color="white" stop-opacity="0"/>
</linearGradient>
<linearGradient id="paint2_linear_92_3995" x1="2.42537" y1="67.5358" x2="124.575" y2="171.565" gradientUnits="userSpaceOnUse">
<stop stop-color="white"/>
<stop offset="1" stop-color="white" stop-opacity="0"/>
</linearGradient>
<linearGradient id="paint3_linear_92_3995" x1="11.2682" y1="21.7909" x2="87.6566" y2="97.2321" gradientUnits="userSpaceOnUse">
<stop stop-color="#E6E6E6"/>
<stop offset="1" stop-color="white" stop-opacity="0"/>
</linearGradient>
<linearGradient id="paint4_linear_92_3995" x1="11.2682" y1="21.7909" x2="87.6566" y2="97.2321" gradientUnits="userSpaceOnUse">
<stop stop-color="#E6E6E6"/>
<stop offset="1" stop-color="white" stop-opacity="0"/>
</linearGradient>
</defs>
</svg>
