<svg width="604" height="553" viewBox="0 0 604 553" fill="none" xmlns="http://www.w3.org/2000/svg">
<circle cx="321.209" cy="303.525" r="249.075" fill="url(#paint0_linear_1_674)" fill-opacity="0.7"/>
<circle cx="116.468" cy="501.427" r="7.578" fill="#0C2660"/>
<circle cx="495.585" cy="207.295" r="7.578" fill="#0C2660"/>
<circle cx="523.175" cy="516.583" r="7.578" fill="#0C2660"/>
<path d="M116.468 479.377L116.468 324.348" stroke="#0D348B" stroke-width="1.2137" stroke-linecap="round" stroke-dasharray="1.62 1.62"/>
<path d="M523.175 499.49L523.175 446.933" stroke="#0D348B" stroke-width="1.2137" stroke-linecap="round" stroke-dasharray="1.62 1.62"/>
<path d="M495.585 191.855L495.585 139.297" stroke="#0D348B" stroke-width="1.2137" stroke-linecap="round" stroke-dasharray="1.62 1.62"/>
<rect width="284.711" height="211.907" rx="6.97937" transform="matrix(0.872988 0.487741 -2.27658e-08 1 46.6565 0.316406)" fill="url(#paint1_linear_1_674)" fill-opacity="0.5"/>
<rect width="284.711" height="211.907" rx="6.97937" transform="matrix(0.872988 0.487741 -2.27658e-08 1 24.4319 11.8373)" fill="url(#paint2_linear_1_674)"/>
<rect width="284.711" height="211.907" rx="6.97937" transform="matrix(0.872988 0.487741 -2.27658e-08 1 24.4319 11.8373)" fill="url(#paint3_linear_1_674)"/>
<rect width="284.711" height="211.907" rx="6.97937" transform="matrix(0.872988 0.487741 -2.27658e-08 1 0.283691 21.781)" fill="url(#paint4_linear_1_674)"/>
<path d="M0.283691 48.3444L248.833 187.21L248.833 392.138C248.833 395.992 246.105 397.593 242.74 395.713L6.3766 263.656C3.01158 261.776 0.283687 257.127 0.283687 253.272L0.283691 48.3444Z" fill="url(#paint5_linear_1_674)"/>
<path d="M0.283691 48.3444L52.8683 77.7235L52.8683 289.631L6.3766 263.656C3.01158 261.776 0.283687 257.127 0.283687 253.272L0.283691 48.3444Z" fill="url(#paint6_linear_1_674)"/>
<rect opacity="0.25" width="36.1208" height="10.0578" rx="4.88556" transform="matrix(0.872988 0.487741 -2.27658e-08 1 10.8086 75.3088)" fill="white"/>
<rect opacity="0.25" width="23.3557" height="6.5034" rx="3.2517" transform="matrix(0.872988 0.487741 -2.27658e-08 1 16.3816 108.245)" fill="white"/>
<rect opacity="0.25" width="23.3557" height="6.5034" rx="3.2517" transform="matrix(0.872988 0.487741 -2.27658e-08 1 16.3816 119.641)" fill="white"/>
<rect opacity="0.25" width="23.3557" height="6.5034" rx="3.2517" transform="matrix(0.872988 0.487741 -2.27658e-08 1 16.3816 131.033)" fill="white"/>
<rect opacity="0.25" width="23.3557" height="6.5034" rx="3.2517" transform="matrix(0.872988 0.487741 -2.27658e-08 1 16.3816 194.452)" fill="white"/>
<rect width="23.3557" height="6.5034" rx="3.2517" transform="matrix(0.872988 0.487741 -2.27658e-08 1 73.9885 110.695)" fill="#1F54CB"/>
<rect width="23.3557" height="6.5034" rx="3.2517" transform="matrix(0.872988 0.487741 -2.27658e-08 1 109.617 128.583)" fill="#1F54CB"/>
<rect width="23.3557" height="6.5034" rx="3.2517" transform="matrix(0.872988 0.487741 -2.27658e-08 1 146.589 146.486)" fill="#1F54CB"/>
<rect width="23.3557" height="6.5034" rx="3.2517" transform="matrix(0.872988 0.487741 -2.27658e-08 1 187.259 166.756)" fill="#1F54CB"/>
<rect opacity="0.25" width="23.3557" height="6.5034" rx="3.2517" transform="matrix(0.872988 0.487741 -2.27658e-08 1 16.3816 142.422)" fill="white"/>
<rect opacity="0.25" width="23.3557" height="6.5034" rx="3.2517" transform="matrix(0.872988 0.487741 -2.27658e-08 1 16.3816 205.839)" fill="white"/>
<rect width="88.3095" height="102.24" rx="4.38601" transform="matrix(0.870155 0.566652 -1.96778e-08 1 103.346 157.945)" fill="url(#paint7_radial_1_674)" fill-opacity="0.25"/>
<g clip-path="url(#clip0_1_674)">
<rect width="88.3095" height="102.24" rx="4.38601" transform="matrix(0.870155 0.566652 -1.96778e-08 1 73.9885 157.945)" fill="url(#paint8_linear_1_674)"/>
<path d="M85.279 182.529L100.622 223.06L69.9361 203.078L85.279 182.529Z" fill="white" fill-opacity="0.15"/>
<path d="M96.3903 184.937L111.53 227.332L80.4346 207.156L96.3903 184.937Z" fill="url(#paint9_linear_1_674)"/>
</g>
<path d="M471.81 370.166L474.846 451.427L591.169 338.875C591.651 338.409 591.906 337.757 591.868 337.088L589.121 288.551C589.024 286.844 587.169 285.833 585.682 286.675L544.828 309.826C544.106 310.235 543.659 311.002 543.659 311.832V323.774C543.659 324.578 543.24 325.325 542.552 325.743L472.916 368.11C472.202 368.544 471.779 369.331 471.81 370.166Z" fill="url(#paint10_linear_1_674)" stroke="url(#paint11_linear_1_674)" stroke-width="1.15275"/>
<path d="M585.726 400.782L475.914 462.999C474.235 463.95 472.201 462.541 472.5 460.635L485.815 375.751C485.925 375.048 486.354 374.435 486.977 374.091L598.78 312.242C600.481 311.301 602.511 312.757 602.165 314.67L586.858 399.187C586.736 399.86 586.322 400.445 585.726 400.782Z" fill="url(#paint12_linear_1_674)" stroke="url(#paint13_linear_1_674)" stroke-width="1.15275"/>
<rect opacity="0.25" width="134.297" height="87.7047" rx="2.58355" transform="matrix(0.872988 0.487741 -2.27658e-08 1 461.003 11.2236)" fill="#D7E8F1"/>
<rect width="134.297" height="87.7047" rx="2.58355" transform="matrix(0.872988 0.487741 -2.27658e-08 1 446.515 16.9647)" fill="url(#paint14_linear_1_674)"/>
<path d="M471.76 77.0842L484.961 75.5235L484.961 78.9352L475.783 80.1692L484.961 91.8924L484.961 95.4492L471.76 78.7537L471.76 77.0842Z" fill="white"/>
<path d="M511.761 84.5722L496.674 101.631L493.593 99.8522L508.649 82.7756L511.761 84.5722Z" fill="white"/>
<path d="M528.978 111.788L515.776 113.24L515.776 109.683L524.954 108.558L515.776 96.7262L515.776 93.3145L528.978 110.119L528.978 111.788Z" fill="white"/>
<defs>
<linearGradient id="paint0_linear_1_674" x1="321.209" y1="54.4496" x2="321.209" y2="552.6" gradientUnits="userSpaceOnUse">
<stop stop-color="#EEF5F9"/>
<stop offset="1" stop-color="#CFE3EE"/>
</linearGradient>
<linearGradient id="paint1_linear_1_674" x1="142.355" y1="62.6139" x2="142.355" y2="148.855" gradientUnits="userSpaceOnUse">
<stop stop-color="#92B1F5"/>
<stop offset="1" stop-color="#6892F0"/>
</linearGradient>
<linearGradient id="paint2_linear_1_674" x1="142.355" y1="62.6139" x2="142.355" y2="148.855" gradientUnits="userSpaceOnUse">
<stop stop-color="#92B1F5"/>
<stop offset="1" stop-color="#6892F0"/>
</linearGradient>
<linearGradient id="paint3_linear_1_674" x1="142.355" y1="62.6139" x2="142.355" y2="148.855" gradientUnits="userSpaceOnUse">
<stop stop-color="#92B1F5"/>
<stop offset="1" stop-color="#6892F0"/>
</linearGradient>
<linearGradient id="paint4_linear_1_674" x1="142.355" y1="62.6139" x2="142.355" y2="148.855" gradientUnits="userSpaceOnUse">
<stop stop-color="#AFC8FF"/>
<stop offset="1" stop-color="#1F54CB"/>
</linearGradient>
<linearGradient id="paint5_linear_1_674" x1="-5.61386" y1="151.003" x2="248.622" y2="151.003" gradientUnits="userSpaceOnUse">
<stop stop-color="#016BCF"/>
<stop offset="1" stop-color="#0153CD"/>
</linearGradient>
<linearGradient id="paint6_linear_1_674" x1="26.576" y1="125.648" x2="-10.1447" y2="191.373" gradientUnits="userSpaceOnUse">
<stop stop-color="#0152CD"/>
<stop offset="1" stop-color="#1F54CB"/>
</linearGradient>
<radialGradient id="paint7_radial_1_674" cx="0" cy="0" r="1" gradientUnits="userSpaceOnUse" gradientTransform="translate(39.5755 30.2587) rotate(105.484) scale(100.572 86.3206)">
<stop stop-color="#FFF6F6" stop-opacity="0"/>
<stop offset="0.933359" stop-color="#FFF6F6"/>
</radialGradient>
<linearGradient id="paint8_linear_1_674" x1="44.1548" y1="30.2095" x2="44.1548" y2="71.8185" gradientUnits="userSpaceOnUse">
<stop stop-color="#1F54CB"/>
<stop offset="1" stop-color="#1F54CB"/>
</linearGradient>
<linearGradient id="paint9_linear_1_674" x1="95.9824" y1="184.671" x2="81.0703" y2="207.57" gradientUnits="userSpaceOnUse">
<stop stop-color="#1048C5"/>
<stop offset="1" stop-color="#1F54CB" stop-opacity="0.32"/>
</linearGradient>
<linearGradient id="paint10_linear_1_674" x1="531.844" y1="284.846" x2="531.844" y2="451.427" gradientUnits="userSpaceOnUse">
<stop stop-color="#1F54CB"/>
<stop offset="1" stop-color="#072870"/>
</linearGradient>
<linearGradient id="paint11_linear_1_674" x1="531.844" y1="338.18" x2="531.844" y2="411.641" gradientUnits="userSpaceOnUse">
<stop stop-color="#0037B3"/>
<stop offset="1" stop-color="#0C2660"/>
</linearGradient>
<linearGradient id="paint12_linear_1_674" x1="537.395" y1="355.826" x2="537.395" y2="419.095" gradientUnits="userSpaceOnUse">
<stop stop-color="#406DD3"/>
<stop offset="1" stop-color="#4074E9"/>
</linearGradient>
<linearGradient id="paint13_linear_1_674" x1="537.395" y1="355.826" x2="553.192" y2="405.233" gradientUnits="userSpaceOnUse">
<stop stop-color="#A3BCF3"/>
<stop offset="0.914404" stop-color="#F9F9F9" stop-opacity="0"/>
</linearGradient>
<linearGradient id="paint14_linear_1_674" x1="-0.091485" y1="42.9573" x2="134.205" y2="42.9573" gradientUnits="userSpaceOnUse">
<stop stop-color="#3779DF"/>
<stop offset="1" stop-color="#3E92DF"/>
</linearGradient>
<clipPath id="clip0_1_674">
<rect width="88.3095" height="102.24" rx="4.38601" transform="matrix(0.870155 0.566652 -1.96778e-08 1 73.9885 157.945)" fill="white"/>
</clipPath>
</defs>
</svg>
