<svg width="144" height="81" viewBox="0 0 144 81" fill="none" xmlns="http://www.w3.org/2000/svg">
<path d="M63.7906 47.1317C63.9819 47.3195 64.1652 47.5176 64.3367 47.7239C64.5072 47.9299 64.6682 48.145 64.8175 48.3687C64.9653 48.5902 65.1029 48.8211 65.2299 49.06C65.3542 49.2966 65.4683 49.5404 65.57 49.7917C65.6694 50.0404 65.759 50.2974 65.8361 50.5616C65.9117 50.8209 65.9752 51.0877 66.0262 51.3606C66.0768 51.6286 66.115 51.9049 66.1411 52.1879C66.1664 52.4688 66.1796 52.7534 66.1796 53.0414C66.1796 53.3294 66.1664 53.6136 66.1411 53.8936C66.115 54.1775 66.0768 54.4538 66.0262 54.7214C65.9752 54.9946 65.9117 55.2615 65.8361 55.5211C65.759 55.7842 65.6694 56.0408 65.57 56.2895C65.4687 56.5408 65.3542 56.7854 65.2299 57.0216C65.1032 57.2605 64.9653 57.4918 64.8175 57.7132C64.6678 57.937 64.5061 58.1532 64.3352 58.3588C64.164 58.5651 63.9819 58.7628 63.7902 58.9499C63.5948 59.1408 63.3915 59.3222 63.1795 59.49C62.9674 59.6589 62.7448 59.8196 62.5143 59.967C62.2845 60.1151 62.0445 60.2527 61.798 60.3786C61.5531 60.504 61.2995 60.6186 61.0391 60.7206C60.7791 60.8227 60.513 60.913 60.2428 60.9901C59.9748 61.0668 59.6996 61.1318 59.4203 61.1832C59.1444 61.2346 58.8625 61.2743 58.5752 61.3C58.291 61.3265 58.0042 61.3401 57.718 61.3401C57.4308 61.3401 57.1436 61.3265 56.8582 61.3C56.5706 61.2743 56.2875 61.2354 56.0097 61.1836C55.7293 61.1318 55.4533 61.0668 55.1839 60.9901C54.9133 60.9134 54.6472 60.8234 54.3871 60.7217C54.126 60.6193 53.872 60.5048 53.6256 60.3801C53.3788 60.2542 53.1391 60.1166 52.9082 59.9689C52.6769 59.8203 52.4535 59.6612 52.2404 59.4919C52.0295 59.3241 51.8246 59.1442 51.6292 58.9533C51.438 58.7658 51.2547 58.5678 51.0823 58.361C50.9119 58.1562 50.7501 57.9408 50.6001 57.7163C50.4515 57.4959 50.3128 57.2646 50.187 57.0257C50.0611 56.7891 49.9473 56.5442 49.8453 56.2933C49.7455 56.045 49.6559 55.7876 49.5788 55.5238C49.5032 55.2641 49.4386 54.9965 49.3876 54.7233C49.3377 54.4553 49.2988 54.1775 49.2727 53.8929C49.2474 53.6132 49.2341 53.3286 49.2341 53.0414C49.2341 52.7537 49.2474 52.4695 49.2731 52.1898C49.2988 51.9049 49.3377 51.6278 49.3876 51.3591C49.439 51.0866 49.5032 50.8186 49.5788 50.5586C49.6563 50.2952 49.7451 50.0382 49.8453 49.7895C49.9473 49.5389 50.0611 49.2936 50.187 49.057C50.3128 48.8177 50.4515 48.5868 50.6001 48.3665C50.7501 48.142 50.9115 47.9269 51.0823 47.7209C51.2543 47.5142 51.438 47.3165 51.6292 47.1291C51.8246 46.9386 52.0287 46.7587 52.2404 46.5901C52.4532 46.4211 52.6769 46.2613 52.9082 46.1127C53.1407 45.9642 53.3807 45.8262 53.6267 45.7011C53.872 45.5753 54.1267 45.4615 54.3871 45.3602C54.6476 45.2578 54.9148 45.1679 55.1858 45.0908C55.4549 45.0136 55.7304 44.9486 56.0097 44.8972C56.2875 44.8458 56.5702 44.8073 56.8571 44.7812C57.1432 44.7551 57.4308 44.7415 57.718 44.7415C58.0045 44.7415 58.291 44.7551 58.576 44.7812C58.8625 44.8073 59.1448 44.8466 59.4203 44.898C59.6996 44.9498 59.9752 45.0152 60.2443 45.0919C60.5141 45.1686 60.7802 45.2589 61.0391 45.3602C61.2999 45.4634 61.5543 45.5783 61.7996 45.7034C62.046 45.8293 62.2852 45.9672 62.5143 46.115C62.7452 46.2635 62.9678 46.4227 63.1798 46.5916C63.3915 46.7602 63.5956 46.9408 63.7906 47.1317ZM139.675 35.3286L139.756 35.4065L139.837 35.479L139.917 35.5437L139.999 35.6038L140.076 35.6544L140.151 35.6975L140.223 35.733C140.329 35.7742 140.436 35.812 140.542 35.8509L140.391 36.4591L139.984 36.4005C138.935 36.2977 137.78 36.3105 136.729 36.3865L136.58 36.4016L136.472 36.4164L136.201 36.4693L136.052 35.8687L136.358 35.7308L136.436 35.6896L136.501 35.6495L136.561 35.6075L136.609 35.5682L136.651 35.527L136.683 35.4892L136.709 35.4518L136.738 35.3876L136.749 35.3199L136.743 35.2443L136.732 35.202L136.717 35.1593C136.353 34.2923 135.97 33.4449 135.572 32.593L135.074 31.5464H128.05L127.587 32.5764C127.325 33.1686 127.07 33.7601 126.821 34.3569L126.48 35.1997L126.47 35.2398L126.466 35.2783L126.469 35.3464L126.478 35.3793L126.507 35.4409L126.536 35.4813L126.57 35.5202L126.613 35.5611L126.664 35.6026L126.725 35.645L126.87 35.7273L127.18 35.8687L127.032 36.4693C126.806 36.4258 126.604 36.3895 126.374 36.3646C126.152 36.3476 125.936 36.3374 125.713 36.3321L125.191 36.3359C124.977 36.3438 124.77 36.3574 124.557 36.3767C124.38 36.3986 124.209 36.4247 124.034 36.4534L123.743 35.8668L124.137 35.7323L124.284 35.6673L124.421 35.5875L124.49 35.5403L124.621 35.431L124.686 35.3675L124.751 35.2965L124.815 35.2179L124.878 35.1343L124.941 35.0399L125.003 34.9378L125.06 34.8312C125.36 34.2299 125.688 33.6354 125.992 33.0329L126.307 32.3927L127.064 30.8113C128.082 28.6577 129.094 26.5068 130.086 24.3415L130.999 22.3202L131.4 21.415C131.538 21.0994 131.678 20.7861 131.81 20.4686H132.516L132.592 20.6512C132.866 21.3239 133.311 22.321 133.872 23.5463C134.418 24.7388 135.107 26.2177 135.858 27.8308L136.204 28.5761L137.247 30.7966L137.974 32.3212L138.273 32.9297L138.55 33.4782L138.823 34.0028L139.169 34.6513L139.231 34.7571L139.297 34.8611L139.44 35.0595L139.594 35.2436L139.675 35.3286ZM129.015 29.3607L128.721 29.9923L128.564 30.3377H134.512C134.284 29.8302 134.049 29.3286 133.812 28.8259L132.923 26.8738C132.46 25.8465 132.003 24.8147 131.527 23.7939L131.244 24.4152L130.737 25.56C130.563 25.9542 130.371 26.3889 130.142 26.8984L129.741 27.7854L129.015 29.3607ZM94.7472 35.4949L94.7756 35.5319L94.8081 35.566C94.9702 35.7122 95.1645 35.781 95.3621 35.8687L95.2117 36.4761L94.9392 36.4164L94.8447 36.4005L94.717 36.385C93.8379 36.3124 92.8155 36.2973 91.9398 36.4005L91.8494 36.416L91.6295 36.4651L91.3392 35.88L91.6385 35.7633C91.6888 35.744 91.733 35.7243 91.7723 35.7035C91.8128 35.6824 91.8506 35.6593 91.8838 35.6359L91.9734 35.5614L92.0086 35.524L92.0713 35.439L92.0966 35.3917L92.1193 35.3415L92.1386 35.2889L92.1541 35.2303L92.1749 35.1049L92.1972 34.6052C92.2108 34.1358 92.2195 33.6698 92.2244 33.2007C92.2293 32.5544 92.2289 31.8046 92.2281 30.8605L92.2255 28.8785H83.1841L83.1815 30.8128C83.1811 31.7793 83.1796 32.5439 83.1853 33.2L83.1996 34.1626L83.2121 34.6029L83.2291 35.0323C83.2344 35.0981 83.2423 35.1495 83.2563 35.2133L83.2918 35.3233L83.341 35.4212C83.3746 35.4707 83.4026 35.5074 83.4423 35.552L83.5326 35.6317C83.6811 35.7398 83.8172 35.7946 83.9846 35.8714L83.8346 36.4776L83.5598 36.416L83.4699 36.4005L83.3436 36.385L82.9963 36.3589C82.1977 36.3204 81.3703 36.3128 80.5736 36.4005L80.4644 36.4167L80.1949 36.4693L80.0471 35.8706C80.2395 35.7837 80.3835 35.7289 80.5456 35.5943L80.5895 35.552L80.6613 35.4654L80.7184 35.3725C80.7531 35.295 80.7713 35.2387 80.7894 35.1559L80.803 35.0338C80.854 33.8841 80.8525 32.7608 80.8503 30.6628C80.8438 30.1809 80.8476 29.6967 80.8461 29.2148L80.851 24.9432L80.8469 23.7784C80.8446 23.428 80.8401 23.1071 80.8333 22.8017C80.8253 22.4998 80.8162 22.2118 80.803 21.9253C80.7985 21.855 80.7913 21.8002 80.7781 21.7314L80.7429 21.6199L80.6964 21.5243L80.6681 21.4812L80.6367 21.4419L80.6012 21.4041L80.5623 21.3693L80.4697 21.3047L80.4145 21.2744C80.2958 21.2211 80.1752 21.1826 80.0528 21.1403L80.1888 20.4497L80.5037 20.5552C80.5358 20.5654 80.5793 20.5756 80.6292 20.5843C80.6809 20.5937 80.7403 20.6021 80.8041 20.6089L81.0135 20.6274L81.2388 20.6399C81.7377 20.6569 83.0303 20.7098 83.5167 20.5578L83.8387 20.4327L83.9782 21.1403C83.8773 21.1754 83.7752 21.2094 83.6751 21.248C83.6154 21.2759 83.57 21.3001 83.5144 21.3353L83.4313 21.4041L83.3633 21.4819L83.3368 21.5239L83.2896 21.6184C83.2091 21.8516 83.2223 22.0991 83.2121 22.3425L83.1996 22.7655L83.1853 23.6778C83.1796 24.2973 83.1811 25.0097 83.1815 25.9013L83.1841 27.6237H92.2255L92.2281 25.856C92.2289 24.9852 92.2293 24.2867 92.2244 23.6778C92.2195 23.2322 92.2108 22.7885 92.1972 22.3429L92.1749 21.8569C92.1624 21.7665 92.1492 21.7053 92.1193 21.6199L92.0974 21.5711L92.0717 21.525L92.012 21.4445L91.9749 21.4067L91.9337 21.3704L91.8891 21.3383L91.8362 21.3051L91.7807 21.2759L91.6533 21.2242L91.3581 21.1289L91.6238 20.455L91.8925 20.5578C91.9175 20.5677 91.9526 20.5767 91.9946 20.5847C92.0445 20.5937 92.1019 20.6024 92.1635 20.6089L92.3582 20.6266L92.5895 20.6399C92.8548 20.6485 93.1156 20.6519 93.3813 20.6531C93.5555 20.6531 93.8923 20.6531 94.1939 20.6395C94.4025 20.6289 94.6939 20.6206 94.8935 20.5578L95.2155 20.4335L95.3546 21.1338L95.1225 21.2219C95.0813 21.2374 95.0431 21.2537 95.0087 21.2725C94.9747 21.2899 94.9415 21.3103 94.9109 21.333C94.8814 21.3542 94.8542 21.378 94.8307 21.4018C94.8058 21.4271 94.7835 21.4532 94.7642 21.4804C94.7442 21.5099 94.7264 21.5405 94.7105 21.5723C94.695 21.6048 94.6811 21.6392 94.6705 21.6747C94.6591 21.7125 94.6497 21.7525 94.6429 21.7941C94.6361 21.8361 94.6312 21.8803 94.6289 21.9268C94.587 22.4778 94.5669 23.0319 94.5582 23.6899C94.5503 24.3521 94.5522 25.122 94.5552 26.0971L94.5613 28.4922L94.5552 30.9009C94.5522 31.8685 94.5503 32.6255 94.5582 33.2778C94.5669 33.926 94.587 34.4737 94.6289 35.0259C94.6289 35.0977 94.6414 35.182 94.6535 35.2526C94.6671 35.312 94.6795 35.357 94.7011 35.4133L94.7472 35.4949ZM10.8258 34.9775C10.9547 34.9537 11.084 34.9268 11.2117 34.8977C11.3395 34.869 11.4627 34.8376 11.5817 34.804C11.7038 34.7704 11.824 34.7341 11.9393 34.6959C12.0545 34.6574 12.1694 34.6154 12.2836 34.5708C12.3973 34.5251 12.5081 34.4778 12.6128 34.4283C12.7194 34.3788 12.8237 34.3255 12.9261 34.2696C13.0282 34.2133 13.1276 34.1532 13.2228 34.0916C13.3173 34.0303 13.4125 33.9642 13.5051 33.8931L13.7081 33.7405L14.1495 34.1861L13.8007 34.8849L13.5637 35.3766C13.487 35.5395 13.4167 35.6937 13.3672 35.8135C13.3203 35.928 13.2905 36.0108 13.2905 36.0365V36.3313C10.4656 36.3313 7.63516 36.3139 4.8111 36.3328C4.40329 36.3427 4.00077 36.354 3.59523 36.4005L3.49696 36.4164L3.22408 36.4727L3.08008 35.8891C3.26867 35.7856 3.40814 35.7149 3.56953 35.5716C3.63 35.5093 3.67195 35.4598 3.72033 35.3876L3.77135 35.2904C3.7997 35.2164 3.81444 35.1619 3.82804 35.0841L3.8322 35.0323C3.8579 34.4544 3.87038 33.8833 3.87604 33.1947C3.88209 32.5038 3.88134 31.6919 3.87982 30.6344C3.86508 29.3313 3.87 28.0217 3.87604 26.7147C3.87945 25.4096 3.88663 24.1076 3.86244 22.8029L3.84921 22.3573C3.84203 22.1706 3.84241 21.9767 3.81935 21.7911C3.80612 21.7291 3.79365 21.6804 3.77362 21.6203L3.72562 21.5231L3.69841 21.4808L3.66628 21.4411L3.63227 21.4056L3.59258 21.3701C3.54193 21.3315 3.50112 21.3058 3.44556 21.2752L3.32234 21.2234L3.08159 21.141L3.21916 20.449L3.53362 20.5548C3.56272 20.5643 3.59976 20.573 3.64134 20.5809L3.80159 20.6051L4.02534 20.6259L4.26874 20.6399C5.13236 20.6701 6.05041 20.7498 6.86905 20.4331L7.00776 21.1403C6.88493 21.1826 6.76474 21.2211 6.64644 21.2748L6.59315 21.3039L6.50093 21.3678L6.46011 21.4045L6.39359 21.4808C6.36146 21.5299 6.34219 21.567 6.31875 21.621C6.29759 21.6804 6.28474 21.7291 6.27264 21.7911C6.24808 21.9767 6.24959 22.1706 6.24165 22.358L6.2288 22.8033L6.21444 23.7814C6.20877 24.4387 6.2099 25.2051 6.21104 26.1701C6.21255 27.7091 6.21368 29.2481 6.21104 30.7875C6.21028 31.8087 6.20877 32.6572 6.21293 33.3848C6.21519 33.751 6.21935 34.0882 6.2254 34.4026C6.23031 34.6846 6.23749 34.9499 6.24694 35.2024L6.69973 35.2118L7.78408 35.2148L8.24971 35.2099L8.70401 35.1967L9.1534 35.1737L9.58842 35.1419L10.0132 35.0988C10.1485 35.0833 10.2865 35.0656 10.4252 35.0448C10.562 35.024 10.6962 35.0021 10.8258 34.9775ZM29.3455 22.5829C29.5375 22.7715 29.7201 22.9699 29.8913 23.1763C30.0606 23.3804 30.2216 23.5958 30.372 23.8203C30.5194 24.0418 30.657 24.2727 30.7836 24.512C30.9087 24.7482 31.0221 24.9924 31.1242 25.2445C31.2236 25.492 31.3131 25.749 31.3895 26.0128C31.4651 26.2729 31.5289 26.5401 31.5803 26.8126C31.631 27.0802 31.6692 27.3565 31.6952 27.6403C31.7206 27.92 31.7334 28.2046 31.7334 28.4922C31.7334 28.7802 31.7206 29.0648 31.6952 29.3445C31.6692 29.6283 31.631 29.9042 31.5803 30.1718C31.5289 30.4447 31.4651 30.7119 31.3895 30.9719C31.3131 31.2354 31.2236 31.4924 31.1242 31.7407C31.0225 31.9913 30.9087 32.2362 30.7832 32.4739C30.657 32.7128 30.5194 32.9434 30.3716 33.1641C30.2216 33.3878 30.0606 33.6029 29.8905 33.8089C29.7185 34.0156 29.5364 34.2136 29.3455 34.4007C29.1505 34.5912 28.946 34.7719 28.734 34.9412C28.5216 35.1102 28.2993 35.27 28.068 35.4186C27.8379 35.566 27.5986 35.7039 27.3526 35.8294C27.1058 35.9556 26.8525 36.0694 26.5933 36.1718C26.3344 36.2735 26.0694 36.3634 25.8007 36.4405C25.5308 36.5173 25.2549 36.5823 24.9745 36.6352C24.6986 36.6866 24.417 36.7251 24.1305 36.7516C23.8455 36.7777 23.559 36.7913 23.2722 36.7913C22.9846 36.7913 22.6969 36.7777 22.4108 36.7516C22.1243 36.7255 21.8413 36.6866 21.5642 36.6352C21.2834 36.5834 21.0075 36.5184 20.7376 36.4417C20.467 36.3646 20.2006 36.2746 19.9402 36.1733C19.679 36.0705 19.4246 35.9556 19.1774 35.8305C18.9325 35.7058 18.6933 35.5682 18.462 35.4201C18.2303 35.2715 18.0065 35.1117 17.7934 34.9427C17.5821 34.7749 17.378 34.595 17.1826 34.4041C16.9914 34.2163 16.8081 34.0179 16.6353 33.8111C16.4649 33.6055 16.3035 33.3908 16.1538 33.1675C16.0057 32.9464 15.8673 32.7154 15.7407 32.4762C15.6156 32.2404 15.5022 31.9954 15.4002 31.7445C15.3004 31.4973 15.2108 31.2407 15.1333 30.9757C15.0578 30.7157 14.9931 30.4477 14.9417 30.1741C14.8918 29.9061 14.8533 29.6283 14.8276 29.3441C14.8019 29.0644 14.7883 28.7798 14.7883 28.4922C14.7883 28.205 14.8019 27.9207 14.8276 27.6411C14.8533 27.3565 14.8918 27.079 14.9417 26.8111C14.9927 26.5386 15.0574 26.2717 15.1326 26.0125C15.2097 25.7475 15.2996 25.4901 15.3994 25.2418C15.5007 24.9905 15.6152 24.7459 15.7407 24.5082C15.8673 24.2693 16.0053 24.0384 16.1534 23.8177C16.3035 23.5936 16.4649 23.3781 16.6357 23.1725C16.8081 22.9658 16.9914 22.7674 17.1826 22.5799C17.3788 22.3883 17.584 22.2084 17.7956 22.0398C18.0073 21.8708 18.2303 21.7121 18.462 21.5639C18.6937 21.415 18.934 21.2778 19.1793 21.1527C19.4254 21.0276 19.6801 20.9135 19.9402 20.8118C20.2006 20.7098 20.4674 20.6194 20.7376 20.5427C21.0075 20.466 21.283 20.4014 21.5642 20.3496C21.8409 20.2982 22.124 20.2585 22.4101 20.2328C22.6962 20.2067 22.9842 20.1931 23.2722 20.1931C23.5579 20.1931 23.8448 20.2067 24.1298 20.2328C24.4162 20.2585 24.6986 20.2982 24.9745 20.3496C25.2549 20.4014 25.5308 20.4668 25.7999 20.5439C26.069 20.6206 26.3344 20.7102 26.5933 20.8126C26.8529 20.9142 27.1065 21.028 27.3514 21.1531C27.5979 21.2797 27.8375 21.4173 28.0676 21.5658C28.2993 21.7144 28.5219 21.8739 28.734 22.0432C28.946 22.2118 29.1501 22.3917 29.3455 22.5829ZM27.5461 33.5277C27.6784 33.3712 27.8065 33.2045 27.927 33.0299C28.0461 32.8576 28.158 32.6765 28.2627 32.4894C28.3659 32.3027 28.4619 32.1073 28.5503 31.9062C28.6372 31.7067 28.7166 31.4996 28.7869 31.2872C28.8557 31.0793 28.9188 30.8605 28.9728 30.6322C29.0254 30.4099 29.0707 30.1809 29.1063 29.9462C29.1418 29.7126 29.1694 29.4737 29.1868 29.2303C29.2045 28.9907 29.214 28.7435 29.214 28.4922C29.214 28.2405 29.2045 27.9937 29.1868 27.7544C29.1694 27.5107 29.1418 27.2722 29.1063 27.039C29.0707 26.8039 29.0254 26.5745 28.9728 26.3526C28.9192 26.1266 28.8572 25.9081 28.7869 25.6972C28.7166 25.4848 28.6372 25.2781 28.5503 25.0778C28.4619 24.8767 28.3659 24.6817 28.2627 24.4953C28.158 24.3071 28.0461 24.1261 27.927 23.9537C27.8069 23.7799 27.6791 23.614 27.5461 23.4579C27.4104 23.2984 27.2683 23.1483 27.1205 23.0085C26.9727 22.8679 26.8166 22.7345 26.6556 22.6116C26.4927 22.4865 26.3253 22.372 26.1556 22.2692C25.9844 22.1657 25.8064 22.0704 25.6234 21.9854C25.4409 21.9007 25.2534 21.8259 25.0633 21.7616C24.8743 21.6985 24.6793 21.6437 24.482 21.6006C24.2851 21.5579 24.0844 21.525 23.883 21.5035C23.683 21.4823 23.4789 21.471 23.2722 21.471C23.0636 21.471 22.8576 21.4823 22.6565 21.5035C22.4532 21.525 22.2513 21.5579 22.0529 21.6006C21.8533 21.6441 21.6576 21.6985 21.4671 21.7616C21.2755 21.8259 21.0869 21.9007 20.9032 21.9854C20.7206 22.0697 20.5407 22.1649 20.3661 22.2696C20.1919 22.3747 20.0233 22.4888 19.8615 22.6116C19.7013 22.7333 19.5444 22.8668 19.394 23.0092C19.2451 23.1495 19.1019 23.2991 18.9662 23.4579C18.8316 23.6147 18.7024 23.7814 18.581 23.956C18.4608 24.1291 18.3482 24.309 18.2439 24.4961C18.14 24.6824 18.0428 24.8771 17.954 25.0793C17.8663 25.2788 17.7866 25.4863 17.7151 25.6991C17.6445 25.91 17.581 26.1285 17.5273 26.3526C17.4751 26.5718 17.4294 26.8009 17.3931 27.0393C17.3572 27.2714 17.33 27.5107 17.3119 27.7529C17.2941 27.9937 17.285 28.2405 17.285 28.4922C17.285 28.7443 17.2941 28.9907 17.3119 29.2307C17.33 29.4737 17.3568 29.7126 17.3931 29.9447C17.4298 30.1839 17.4751 30.4137 17.5273 30.6325C17.581 30.8563 17.6445 31.0744 17.7151 31.2845C17.7862 31.4981 17.8659 31.7052 17.9533 31.9044C18.0421 32.1062 18.1392 32.3008 18.2435 32.4875C18.3475 32.6746 18.4608 32.8553 18.581 33.028C18.7024 33.2034 18.8316 33.3697 18.9662 33.5262C19.1015 33.6849 19.2447 33.8349 19.3929 33.9744C19.5441 34.1173 19.7009 34.2503 19.8623 34.3728C20.0241 34.4956 20.1926 34.6101 20.3672 34.7152C20.5419 34.8203 20.721 34.9148 20.9039 34.999C21.088 35.0833 21.2762 35.1593 21.4675 35.2228C21.6579 35.2863 21.8541 35.3399 22.0529 35.383C22.2513 35.4261 22.4524 35.4586 22.6554 35.4805C22.8572 35.5017 23.0636 35.5127 23.2722 35.5127C23.4789 35.5127 23.683 35.5017 23.8841 35.4805C24.0848 35.4586 24.2855 35.4261 24.4813 35.383C24.6793 35.3403 24.8736 35.2863 25.0622 35.2228C25.253 35.1585 25.4405 35.0833 25.6234 34.999C25.8056 34.914 25.9836 34.8191 26.1552 34.7156C26.3253 34.6124 26.4923 34.4982 26.6556 34.3731C26.8174 34.2499 26.9727 34.1169 27.1216 33.9752C27.2702 33.8349 27.4115 33.6853 27.5461 33.5277ZM43.5123 28.7231C43.6476 28.8169 43.7761 28.9151 43.8974 29.0206C44.0165 29.1238 44.1291 29.2341 44.2338 29.3509C44.3381 29.4662 44.4345 29.5864 44.5222 29.7126C44.6084 29.8366 44.687 29.9677 44.7584 30.1049C44.8276 30.2391 44.8892 30.3801 44.9425 30.5267C44.995 30.6703 45.0392 30.8196 45.074 30.9738C45.1084 31.125 45.1349 31.283 45.153 31.4459C45.17 31.6073 45.1791 31.7732 45.1791 31.9429C45.1791 32.1107 45.1689 32.2766 45.1477 32.4376C45.1265 32.6013 45.0956 32.76 45.0544 32.9124C45.0135 33.0662 44.9614 33.217 44.899 33.364C44.8363 33.5125 44.763 33.6558 44.6817 33.793C44.5982 33.9325 44.5056 34.0662 44.4047 34.194C44.3026 34.3221 44.1907 34.4472 44.069 34.5667C43.9466 34.6861 43.8154 34.8014 43.6763 34.9091C43.5354 35.0198 43.3861 35.1238 43.2307 35.2209C43.0758 35.3173 42.9106 35.4087 42.7375 35.496C42.5636 35.5826 42.3826 35.6631 42.1974 35.7372C42.0077 35.8124 41.8111 35.8819 41.6104 35.9443C41.4075 36.0082 41.1989 36.0652 40.9868 36.1151C40.7729 36.1658 40.5518 36.2104 40.325 36.2493C40.0994 36.2871 39.8673 36.3196 39.6322 36.3453C39.3956 36.3714 39.1541 36.3914 38.9115 36.4035C38.667 36.4164 38.4209 36.4228 38.1737 36.4228C37.0833 36.4182 35.9971 36.4077 34.9071 36.3665C34.6134 36.351 34.3284 36.3313 34.0355 36.306V35.7016L34.2751 35.6571L34.3681 35.6348C34.3976 35.6261 34.4252 35.6159 34.4516 35.6038C34.4755 35.592 34.4993 35.5781 34.5208 35.5629C34.5416 35.5478 34.5613 35.5297 34.5798 35.5097C34.5979 35.4892 34.6153 35.4639 34.6304 35.4367C34.6467 35.408 34.661 35.3751 34.6727 35.3388C34.6856 35.2991 34.6969 35.2538 34.7041 35.2031C34.7124 35.1548 34.717 35.0992 34.7192 35.0387C34.7714 33.8826 34.7699 32.757 34.7672 30.6499L34.7627 29.213L34.768 24.9319L34.7638 23.7633C34.7612 23.4114 34.7567 23.0894 34.7491 22.7832C34.7427 22.4794 34.7325 22.1902 34.7192 21.9026L34.7143 21.8126L34.6913 21.6573L34.6746 21.5923L34.6557 21.5394L34.6327 21.4906L34.6089 21.4513C34.4713 21.2767 34.2373 21.3051 34.0355 21.293V20.6584L34.5295 20.6138C35.3198 20.5654 36.1075 20.5457 36.8989 20.5386C37.1396 20.5378 37.3762 20.5427 37.6072 20.5537C37.8366 20.5631 38.063 20.5786 38.2837 20.599C38.5063 20.6198 38.7191 20.6451 38.9202 20.6742C39.1254 20.7049 39.3265 20.7415 39.5219 20.782C39.7173 20.8228 39.9044 20.8689 40.0835 20.9195C40.2642 20.9702 40.438 21.0261 40.6032 21.087C40.7691 21.1474 40.9282 21.2136 41.0809 21.285C41.2325 21.3565 41.378 21.4324 41.5141 21.5129C41.6539 21.5961 41.7873 21.6841 41.9105 21.7764C42.0349 21.8697 42.1517 21.968 42.2586 22.0704C42.3667 22.174 42.4665 22.2824 42.5568 22.3951C42.6479 22.5081 42.7299 22.6256 42.8033 22.7477C42.8762 22.8694 42.9405 22.9968 42.996 23.1283C43.0512 23.2598 43.0981 23.3951 43.1344 23.5331C43.1714 23.6718 43.199 23.815 43.2171 23.9613C43.2353 24.1083 43.2447 24.2572 43.2447 24.4088C43.2447 24.5316 43.2379 24.6537 43.2247 24.7747C43.2115 24.896 43.191 25.0165 43.165 25.1333C43.1385 25.2531 43.1041 25.3703 43.0659 25.4826C43.0266 25.5975 42.9798 25.7116 42.928 25.8223C42.8762 25.9327 42.8165 26.0416 42.7526 26.1462C42.6869 26.254 42.6154 26.3575 42.5398 26.4569C42.4631 26.5559 42.3807 26.6531 42.2927 26.7476C42.2023 26.8439 42.109 26.935 42.013 27.0189C41.9502 27.0737 41.8848 27.1278 41.8187 27.1796C41.751 27.2325 41.683 27.2828 41.6146 27.33C41.5454 27.3776 41.4717 27.4252 41.3965 27.471C41.3221 27.5167 41.2461 27.5602 41.172 27.5999L40.9921 27.6917L40.8768 27.7457L40.9252 27.7537C41.0318 27.7722 41.1395 27.7926 41.2472 27.8145C41.3841 27.8425 41.5182 27.8746 41.6475 27.9079C41.7768 27.9415 41.9056 27.9789 42.0307 28.0186C42.1717 28.0636 42.3089 28.112 42.4412 28.1638C42.5731 28.2152 42.702 28.2707 42.8248 28.3285C42.9454 28.3864 43.0652 28.4495 43.1835 28.5168C43.2969 28.5818 43.4069 28.6506 43.5123 28.7231ZM39.9509 26.6372C40.023 26.5756 40.0918 26.5095 40.1557 26.4399C40.2196 26.3711 40.2797 26.2959 40.3349 26.2181C40.3919 26.1387 40.443 26.0574 40.4879 25.9743C40.534 25.8908 40.5756 25.8016 40.613 25.7086C40.6505 25.6152 40.6833 25.5181 40.7113 25.4172C40.7393 25.3182 40.7631 25.2135 40.7816 25.105C40.8005 24.9973 40.8145 24.8858 40.8239 24.769C40.8338 24.6533 40.8387 24.5328 40.8387 24.4088C40.8387 24.2947 40.8338 24.1851 40.8239 24.0822C40.8145 23.9779 40.7986 23.8774 40.7793 23.7814C40.7589 23.6839 40.734 23.5898 40.7053 23.5017C40.675 23.4129 40.6402 23.3271 40.6009 23.2451C40.5616 23.1612 40.5174 23.0833 40.469 23.0092C40.4203 22.9344 40.3659 22.8618 40.3061 22.7934C40.2476 22.7246 40.1825 22.6585 40.1141 22.5973C40.0446 22.5342 39.9709 22.4756 39.8942 22.4211C39.8133 22.366 39.7286 22.3131 39.6409 22.2651C39.5514 22.2167 39.4561 22.1706 39.3563 22.1279C39.2562 22.0851 39.15 22.0458 39.0404 22.0099C38.9266 21.9729 38.811 21.94 38.6942 21.9117C38.5759 21.8829 38.4511 21.8576 38.3215 21.8346C38.1919 21.8126 38.0577 21.7934 37.9216 21.7779C37.7882 21.7635 37.6495 21.7514 37.5074 21.742C37.391 21.7352 37.2738 21.7295 37.1559 21.7265C37.1476 21.9631 37.14 22.2121 37.1351 22.4756C37.1294 22.7711 37.1257 23.0867 37.1234 23.4254C37.1189 24.0868 37.1192 24.8427 37.1208 25.7229L37.123 27.4165H37.2644C37.4118 27.4165 37.5546 27.412 37.6933 27.4041C37.8343 27.3958 37.9708 27.3825 38.1012 27.3663C38.2319 27.3496 38.3585 27.3285 38.4799 27.3032C38.6012 27.279 38.7184 27.2495 38.8329 27.2159C38.944 27.1837 39.0525 27.1467 39.1549 27.1062C39.2562 27.0662 39.3552 27.0208 39.4489 26.9728C39.5419 26.9241 39.6311 26.8715 39.715 26.8156C39.7978 26.7604 39.8764 26.7007 39.9509 26.6372ZM41.4937 34.3879C41.595 34.3191 41.691 34.2454 41.7817 34.1672C41.8709 34.0893 41.9555 34.0069 42.0326 33.9207C42.1093 33.8365 42.18 33.7461 42.2443 33.6524C42.3081 33.5583 42.3664 33.4611 42.4174 33.3599C42.4684 33.2593 42.5141 33.1531 42.5527 33.0424C42.5916 32.9324 42.6237 32.8186 42.6487 32.7015C42.6755 32.5832 42.6948 32.4596 42.7084 32.3337C42.7209 32.2094 42.7277 32.0786 42.7277 31.9429C42.7277 31.8034 42.7216 31.6674 42.7111 31.5359C42.6993 31.4032 42.6827 31.2773 42.6604 31.1571C42.6389 31.0362 42.6113 30.9187 42.578 30.8064C42.5444 30.6923 42.5058 30.583 42.4624 30.4799C42.4189 30.3774 42.3698 30.278 42.3153 30.1839C42.2605 30.0891 42.2001 29.998 42.1354 29.9125C42.0693 29.826 41.9982 29.7436 41.9234 29.6665C41.847 29.589 41.765 29.5153 41.6789 29.4469C41.5001 29.3048 41.2971 29.1797 41.0722 29.072C40.9566 29.0172 40.8372 28.9677 40.7147 28.9231C40.5911 28.8788 40.4596 28.8373 40.3209 28.801C40.1818 28.7636 40.0367 28.7311 39.8881 28.7039C39.7384 28.6766 39.5827 28.6536 39.4217 28.6351C39.2603 28.6173 39.0921 28.6026 38.9187 28.5935C38.7463 28.5848 38.566 28.5799 38.3786 28.5799L38.0059 28.584L37.6461 28.5988L37.4817 28.6082L37.1242 28.6404L37.1215 31.0003C37.1189 32.9641 37.1173 34.2004 37.157 35.2757L37.3403 35.2814L37.6733 35.2829C37.8797 35.2821 38.0819 35.2757 38.2799 35.2655C38.4802 35.2553 38.6749 35.2398 38.8605 35.2205C39.046 35.2005 39.2259 35.1763 39.4006 35.1464C39.5718 35.1181 39.7396 35.0848 39.901 35.0467C40.0624 35.0085 40.215 34.9658 40.3602 34.9204C40.5064 34.8732 40.6467 34.8222 40.779 34.7677C40.9086 34.7144 41.0348 34.6547 41.1558 34.5905C41.2763 34.5266 41.3897 34.4593 41.4937 34.3879ZM74.8212 34.8331C74.9334 34.776 75.0445 34.7144 75.1538 34.6494C75.2622 34.5837 75.3688 34.5149 75.4716 34.4427C75.5744 34.3713 75.6761 34.2942 75.7774 34.2133C75.8768 34.1324 75.975 34.0477 76.0718 33.9589C76.1678 33.8708 76.2634 33.7775 76.3568 33.68C76.4501 33.5832 76.5427 33.4816 76.6338 33.3761C76.7223 33.2733 76.8115 33.1633 76.9025 33.0473C76.9925 32.9313 77.0798 32.813 77.1645 32.6935L77.2975 32.5042L77.8153 32.7139C77.7979 33.2159 77.773 33.7185 77.7586 34.2205L77.6891 34.2994C77.601 34.3973 77.5088 34.4937 77.4132 34.5878C77.3172 34.6812 77.2185 34.773 77.1176 34.8599C77.0156 34.9484 76.9101 35.0338 76.8039 35.1162C76.6966 35.1982 76.5843 35.2787 76.4694 35.357C76.3538 35.4356 76.2366 35.51 76.1179 35.5807C75.9996 35.6525 75.8768 35.7213 75.7528 35.7863C75.6281 35.8525 75.5003 35.9152 75.3715 35.9745C75.2411 36.0342 75.1084 36.0913 74.9746 36.1442C74.8431 36.196 74.7074 36.2463 74.5668 36.2939C74.4281 36.3404 74.2879 36.3846 74.1469 36.4247C74.0036 36.4651 73.8596 36.5025 73.7145 36.5365C73.5716 36.5694 73.4242 36.6008 73.2734 36.6273C73.1245 36.6545 72.9737 36.6787 72.8248 36.6991C72.677 36.7191 72.5247 36.7361 72.3686 36.7501C72.2182 36.7633 72.0617 36.7739 71.9022 36.7803C71.7465 36.7879 71.5934 36.7913 71.4411 36.7913C71.1422 36.7913 70.8462 36.7777 70.5548 36.7524C70.2596 36.7255 69.9679 36.6866 69.6818 36.6352C69.3941 36.5834 69.1099 36.5188 68.8314 36.4421C68.5517 36.3646 68.2777 36.2754 68.0123 36.1745C67.7447 36.0728 67.4832 35.9587 67.2277 35.8324C66.9745 35.7073 66.7281 35.5701 66.4907 35.4223C66.2537 35.2749 66.0243 35.1162 65.8032 34.9461C65.5851 34.7776 65.3746 34.5973 65.1735 34.4075C64.9759 34.2201 64.788 34.022 64.6104 33.8157C64.435 33.6097 64.268 33.3946 64.1134 33.1709C63.9614 32.9505 63.8197 32.7192 63.6889 32.4796C63.5597 32.243 63.4418 31.9981 63.3367 31.7475C63.2328 31.4973 63.1409 31.2403 63.0615 30.9772C62.9841 30.7176 62.9179 30.4496 62.8646 30.1752C62.8132 29.9073 62.7732 29.6295 62.7467 29.3441C62.7202 29.0644 62.7063 28.7802 62.7063 28.4922C62.7063 28.2042 62.7202 27.9196 62.7467 27.6395C62.7732 27.3546 62.8132 27.0775 62.865 26.8088C62.9179 26.5344 62.9841 26.2668 63.0615 26.0079C63.1402 25.7445 63.2328 25.4875 63.3374 25.2376C63.4418 24.9863 63.5597 24.741 63.6889 24.5044C63.8197 24.2648 63.9614 24.0342 64.1134 23.8131C64.268 23.5898 64.435 23.374 64.6104 23.1687C64.788 22.962 64.9759 22.7643 65.1735 22.5772C65.3746 22.3871 65.5851 22.2065 65.8032 22.0383C66.0243 21.8682 66.2537 21.7091 66.4907 21.5617C66.7284 21.4139 66.9756 21.2759 67.2296 21.1508C67.4836 21.0254 67.7455 20.9112 68.0123 20.8103C68.2788 20.7098 68.5528 20.6194 68.8336 20.542C69.1114 20.4652 69.3949 20.4006 69.6818 20.3492C69.9679 20.2978 70.2593 20.2585 70.5537 20.2324C70.8455 20.2063 71.1418 20.1931 71.4411 20.1931C72.0462 20.1931 72.6578 20.2453 73.2568 20.3496C73.4057 20.3753 73.5535 20.4044 73.6979 20.4365C73.846 20.4686 73.9904 20.5042 74.1303 20.542C74.2678 20.5786 74.4081 20.6198 74.5494 20.6648C74.6874 20.709 74.8253 20.7563 74.9606 20.8069C75.0978 20.8579 75.2301 20.9108 75.3571 20.9657C75.4841 21.0208 75.6107 21.079 75.7362 21.141C75.8613 21.2022 75.983 21.2661 76.1013 21.333C76.2158 21.3976 76.3315 21.4672 76.446 21.5401C76.5582 21.6116 76.6678 21.6864 76.774 21.7624C76.8787 21.8387 76.9823 21.9185 77.0828 22.0005C77.1822 22.0825 77.279 22.1664 77.3701 22.2522C77.4623 22.3372 77.5515 22.4253 77.6373 22.5171L77.7102 22.5973C77.7673 23.3407 77.7881 24.1057 77.8195 24.8499L77.2068 24.9546L77.1142 24.7497C77.0537 24.6174 76.9883 24.4885 76.9199 24.3634C76.8515 24.238 76.7782 24.1155 76.7011 23.9965C76.6247 23.8778 76.5439 23.7625 76.4607 23.6533C76.3772 23.5433 76.2895 23.4371 76.2003 23.3373C76.1085 23.2345 76.0144 23.1366 75.9176 23.0436C75.8201 22.9507 75.718 22.8599 75.613 22.7749C75.5079 22.6887 75.3987 22.6071 75.2864 22.53C75.1761 22.4529 75.0608 22.3796 74.9425 22.3112C74.8227 22.2412 74.6991 22.1759 74.5751 22.1161C74.4489 22.0553 74.3192 21.9986 74.1866 21.9464C74.0539 21.8935 73.9163 21.8451 73.7757 21.8009C73.6355 21.7571 73.4927 21.7174 73.349 21.683C73.2047 21.6486 73.0546 21.6172 72.9 21.5904C72.7466 21.5639 72.5897 21.5424 72.4306 21.5243C72.2722 21.5069 72.1093 21.4933 71.9449 21.4842C71.7817 21.4755 71.6135 21.471 71.4411 21.471C71.2272 21.471 71.0163 21.4819 70.8103 21.5035C70.6021 21.525 70.3957 21.5579 70.1931 21.6006C69.9917 21.6433 69.7914 21.6974 69.5952 21.7616C69.3979 21.8259 69.2052 21.9007 69.0177 21.9854C68.8291 22.0704 68.6462 22.1649 68.4708 22.2681C68.2932 22.3728 68.1204 22.4873 67.9541 22.6105C67.7875 22.7348 67.6268 22.8679 67.4745 23.0089C67.3222 23.1498 67.1763 23.2999 67.038 23.4579C66.9 23.6143 66.7689 23.781 66.6445 23.9553C66.5225 24.1276 66.4068 24.3086 66.2998 24.4969C66.1936 24.6824 66.0946 24.8771 66.0039 25.0785C65.9143 25.2781 65.8319 25.486 65.759 25.7003C65.686 25.9127 65.6214 26.1319 65.5662 26.3571C65.511 26.5801 65.4646 26.8084 65.4279 27.042C65.392 27.2703 65.3636 27.508 65.3451 27.7529C65.3274 27.9937 65.3179 28.2405 65.3179 28.4922C65.3179 28.7428 65.3274 28.9885 65.3455 29.2285C65.364 29.4726 65.392 29.7096 65.4283 29.9382C65.4649 30.1714 65.5118 30.4001 65.567 30.622C65.6218 30.8457 65.6868 31.0645 65.7597 31.2777C65.8331 31.492 65.9158 31.6988 66.0047 31.8979C66.0969 32.1009 66.1963 32.2959 66.3021 32.4826C66.4106 32.6712 66.5266 32.853 66.6487 33.025C66.7734 33.2 66.9049 33.3663 67.0421 33.5235C67.1808 33.6815 67.3275 33.8315 67.4806 33.9725C67.6344 34.1146 67.7939 34.2484 67.959 34.3709C68.1265 34.4952 68.2981 34.6094 68.4731 34.7122C68.6503 34.8165 68.834 34.9129 69.0226 34.9983C69.2104 35.0826 69.4032 35.1578 69.5997 35.222C69.7955 35.2863 69.9943 35.3403 70.1965 35.383C70.3984 35.4261 70.6032 35.4586 70.8111 35.4805C71.0167 35.5017 71.2272 35.5127 71.4411 35.5127C71.6169 35.5127 71.7858 35.5093 71.9483 35.5025C72.115 35.4949 72.2745 35.4847 72.4272 35.4711C72.5784 35.4579 72.7296 35.4394 72.8808 35.4186C73.0319 35.397 73.1756 35.3721 73.3112 35.3445C73.4462 35.3177 73.5811 35.2855 73.716 35.2492C73.8502 35.2141 73.9798 35.1744 74.1049 35.1325C74.2297 35.0897 74.3525 35.0433 74.4716 34.9934C74.5917 34.9431 74.7082 34.8891 74.8212 34.8331ZM106.021 34.9355C106.151 34.9098 106.28 34.8822 106.407 34.8528C106.536 34.8222 106.659 34.7908 106.776 34.7583C106.899 34.7243 107.018 34.6876 107.131 34.6502C107.246 34.6124 107.359 34.5716 107.471 34.5277C107.58 34.485 107.688 34.4397 107.792 34.392C107.894 34.3452 107.995 34.2942 108.095 34.2409C108.194 34.1868 108.29 34.1305 108.38 34.0731C108.468 34.0167 108.555 33.9563 108.64 33.8928L108.843 33.7405L109.285 34.1868L108.903 34.9412L108.667 35.4208C108.595 35.5716 108.528 35.7179 108.476 35.8373C108.431 35.9435 108.402 36.018 108.402 36.0365V36.3313C105.448 36.3313 102.489 36.3132 99.5359 36.3328C99.17 36.3419 98.814 36.3544 98.45 36.3854L98.32 36.4005L98.2221 36.416L97.95 36.4727L97.8048 35.8891C97.9167 35.8286 98.0248 35.7701 98.1321 35.7016C98.2108 35.6442 98.2697 35.5954 98.3381 35.5263C98.3797 35.479 98.4111 35.4378 98.4462 35.3861C98.5169 35.2625 98.5434 35.1737 98.5566 35.0319L98.5736 34.598C98.6896 30.5619 98.6885 26.3938 98.5736 22.3573C98.566 22.1709 98.5672 21.9767 98.5437 21.7919L98.5313 21.7302L98.4973 21.6199L98.45 21.5231L98.422 21.4808L98.3918 21.4426L98.3158 21.3693L98.2236 21.3047L98.1106 21.2484C98.0101 21.2094 97.908 21.1754 97.8064 21.1403L97.9454 20.4414L98.2648 20.5556C98.292 20.5654 98.3302 20.5748 98.3756 20.5839C98.4266 20.5934 98.4859 20.6021 98.5494 20.6089L98.7535 20.6274L98.9757 20.6399C101.829 20.7377 104.766 20.6531 107.628 20.6531C107.628 21.0023 107.625 21 107.712 21.3326L107.777 21.5522L107.869 21.8429L107.972 22.1505C108.053 22.3762 108.136 22.5882 108.225 22.8108L107.774 23.2651L107.57 23.0708C107.504 23.0096 107.434 22.9499 107.361 22.8917C107.291 22.8346 107.215 22.7791 107.137 22.7258C107.059 22.6725 106.979 22.6215 106.899 22.5746C106.818 22.527 106.733 22.4809 106.647 22.4382C106.563 22.3966 106.475 22.3554 106.382 22.3153C106.288 22.2756 106.194 22.2386 106.1 22.205C106.003 22.1702 105.903 22.1369 105.803 22.1067C105.701 22.0765 105.598 22.0481 105.496 22.0228C105.387 21.9956 105.278 21.9702 105.168 21.9479C105.059 21.9253 104.945 21.9045 104.831 21.8863C104.715 21.8671 104.597 21.8497 104.478 21.8342C104.355 21.8183 104.233 21.8043 104.11 21.7926L103.731 21.762L103.337 21.7405L102.933 21.728L102.161 21.7227C101.96 21.7204 101.752 21.7189 101.541 21.7227C101.357 21.7246 101.168 21.7318 100.974 21.7454C100.955 22.3792 100.944 23.01 100.938 23.6434C100.933 24.3275 100.935 25.0759 100.935 25.9868L100.938 27.7121L102.41 27.6849L103.068 27.666L103.643 27.6445L104.141 27.6176L104.561 27.5851C104.687 27.5738 104.804 27.5609 104.911 27.5469C105.017 27.5333 105.114 27.5178 105.201 27.502C105.277 27.488 105.346 27.4721 105.41 27.4555C105.47 27.4385 105.525 27.4215 105.572 27.4022C105.616 27.3852 105.655 27.3663 105.69 27.3462C105.723 27.3262 105.752 27.3062 105.775 27.2854C105.798 27.2654 105.819 27.2434 105.836 27.22C105.854 27.1962 105.87 27.1701 105.884 27.1433L105.926 27.0477C105.967 26.9256 106.005 26.8039 106.042 26.6811L106.702 26.8141L106.614 27.2525L106.59 27.3954L106.556 27.6668C106.546 27.8108 106.541 27.951 106.537 28.0957V28.4344C106.541 28.6211 106.551 28.7923 106.57 28.9782L106.614 29.2508L106.684 29.6019L106.098 29.9571C106.04 29.8094 105.983 29.6616 105.922 29.5149C105.906 29.4787 105.889 29.4435 105.871 29.4121C105.854 29.3819 105.835 29.3528 105.815 29.3271C105.795 29.3006 105.771 29.2761 105.746 29.2538C105.72 29.23 105.69 29.2069 105.656 29.1865C105.621 29.165 105.58 29.1445 105.535 29.1253C105.487 29.1056 105.432 29.0863 105.372 29.0686C105.309 29.0504 105.239 29.0334 105.163 29.0179C105.077 29.0013 104.982 28.9851 104.879 28.9711C104.772 28.9567 104.657 28.9427 104.533 28.9318C104.41 28.92 104.272 28.9095 104.118 28.8996L103.624 28.8739L103.056 28.8558L102.403 28.8429L100.938 28.8312L100.935 30.7996C100.935 31.828 100.933 32.6803 100.938 33.4109C100.944 34.008 100.952 34.6029 100.972 35.2001L101.664 35.2118L102.534 35.2141L102.998 35.2107L103.454 35.1994L103.904 35.1801L104.348 35.1517L104.789 35.1132L105.207 35.0652C105.349 35.047 105.486 35.0274 105.619 35.0066C105.751 34.9858 105.886 34.9616 106.021 34.9355ZM125.743 20.6315L125.904 20.6168L126.067 20.5968L126.215 20.5737L126.652 20.4849L126.787 21.1652L126.514 21.2317C126.468 21.2427 126.421 21.2578 126.374 21.2767C126.329 21.2948 126.283 21.3175 126.239 21.3428C126.194 21.3693 126.149 21.3988 126.105 21.4328C126.061 21.4672 126.017 21.505 125.974 21.5462C125.931 21.5881 125.888 21.6342 125.845 21.6849C125.802 21.7359 125.76 21.7911 125.719 21.8493C125.676 21.9094 125.636 21.9729 125.596 22.0387C125.556 22.1056 125.517 22.1774 125.478 22.2522L124.8 23.623C124.531 24.1616 124.232 24.7607 123.865 25.5136C123.492 26.2778 123.044 27.2094 122.478 28.4106L121.326 30.8676L120.275 33.1459L119.828 34.1324L119.44 35.0021C119.219 35.5062 119.004 36.0089 118.788 36.515H118.085C117.848 35.9598 117.599 35.4087 117.354 34.8577C116.072 32.0238 114.753 29.2145 113.423 26.4033L112.734 24.9606L112.222 23.8986L111.509 22.4363L111.452 22.3304L111.388 22.2227L111.32 22.1161L111.248 22.0133L111.172 21.9128L111.091 21.8153L111.007 21.7197L110.924 21.6342L110.841 21.5549L110.758 21.4823L110.676 21.4177L110.598 21.3629L110.523 21.316L110.452 21.2778L110.388 21.2495L110.33 21.2306L110.011 21.1467L110.269 20.4959L110.507 20.545L110.637 20.5673L110.79 20.5877L110.974 20.6066L111.181 20.6213L111.685 20.6448L112.224 20.6531C112.435 20.6531 112.85 20.6531 113.218 20.6395C113.482 20.6289 113.834 20.6228 114.09 20.5548L114.404 20.449L114.536 21.1217L114.252 21.2457C114.202 21.2684 114.155 21.293 114.114 21.3168C114.072 21.341 114.035 21.3659 114.001 21.3908C113.969 21.4139 113.942 21.4381 113.918 21.4611C113.896 21.4838 113.878 21.5069 113.863 21.5299C113.851 21.5488 113.841 21.5681 113.834 21.5874C113.828 21.6055 113.824 21.6248 113.823 21.6441C113.82 21.6849 113.829 21.7295 113.849 21.7771C114.112 22.3758 114.366 22.9571 114.644 23.552L115.011 24.326C115.231 24.7871 115.479 25.3087 115.772 25.9369L116.25 26.9713C117.091 28.824 117.931 30.6756 118.767 32.5302L119.07 33.1864L119.313 32.6519C119.679 31.825 120.044 30.9976 120.413 30.1714L120.832 29.2481L121.796 27.1694L122.198 26.2876L122.548 25.5049L122.848 24.8219L123.109 24.2111L123.344 23.6521L124.117 21.7752C124.127 21.7499 124.135 21.7242 124.138 21.6996C124.142 21.677 124.144 21.6539 124.142 21.6327C124.141 21.6119 124.137 21.5923 124.131 21.5734C124.125 21.5545 124.115 21.5352 124.103 21.5163C124.09 21.4944 124.072 21.4732 124.051 21.4517C124.03 21.4298 124.004 21.4075 123.974 21.3856C123.943 21.3629 123.907 21.3402 123.869 21.3187C123.829 21.2967 123.786 21.2752 123.739 21.254L123.426 21.1297L123.557 20.4747C123.696 20.5087 123.834 20.5427 123.974 20.5741L124.11 20.5968L124.262 20.6168L124.421 20.6315C124.588 20.6414 124.752 20.6485 124.92 20.6519H125.265C125.426 20.6485 125.582 20.6414 125.743 20.6315ZM71.762 45.1886C72.2303 45.1641 72.3611 45.1471 72.8044 44.9982L72.9412 45.6913C72.8157 45.734 72.6903 45.7722 72.5686 45.8244L72.4605 45.8867L72.4155 45.9196L72.3739 45.9551L72.3373 45.9933L72.3059 46.0322L72.2507 46.1207L72.2284 46.1706L72.194 46.279L72.1827 46.3391L72.1691 46.4741C72.1161 47.62 72.1188 50.9127 72.1218 53.9923L72.1226 56.5148C72.1226 56.8171 72.1184 57.1115 72.109 57.3965C72.1003 57.6853 72.0859 57.9638 72.067 58.2307C72.0481 58.5009 72.0232 58.7658 71.9929 59.0228C71.9631 59.2795 71.9268 59.5301 71.8852 59.7738C71.8429 60.018 71.7949 60.2565 71.7408 60.487C71.686 60.7172 71.6248 60.9436 71.5564 61.1651C71.4887 61.3847 71.4135 61.5997 71.3315 61.8084C71.2499 62.0166 71.1599 62.2211 71.0632 62.4195C70.9668 62.6176 70.8613 62.8126 70.748 63.0027C70.6334 63.1951 70.5129 63.3799 70.3855 63.5575C70.2581 63.7359 70.1198 63.9113 69.972 64.0848C69.8261 64.256 69.6708 64.4242 69.5064 64.5886C69.342 64.7526 69.1693 64.9136 68.9875 65.0697C68.8053 65.2269 68.6129 65.3811 68.4118 65.5316C68.2127 65.6816 68.001 65.8298 67.7788 65.976C67.5546 66.1238 67.3237 66.2671 67.0867 66.4054L66.7606 66.5959L66.5621 65.8929L66.7024 65.7708C66.8426 65.6465 66.9794 65.5229 67.1098 65.3993C67.2406 65.2768 67.3657 65.1536 67.4851 65.0304C67.6038 64.908 67.7183 64.7832 67.8279 64.6574C67.9364 64.5323 68.0407 64.4049 68.1401 64.2737C68.238 64.1464 68.331 64.0137 68.4205 63.8765C68.5101 63.7401 68.594 63.6002 68.6726 63.457C68.7516 63.3134 68.8261 63.1637 68.8971 63.0084C68.9674 62.8519 69.0336 62.6905 69.094 62.5242C69.1556 62.3549 69.2138 62.1776 69.2671 61.9928C69.3201 61.8072 69.3699 61.6133 69.4145 61.4111C69.4599 61.2101 69.5015 60.9973 69.5385 60.7739C69.5748 60.5524 69.6084 60.3188 69.6379 60.0732C69.667 59.8302 69.6923 59.5724 69.7139 59.3018C69.7354 59.0304 69.7539 58.7481 69.7679 58.4567C69.7815 58.1604 69.7933 57.8512 69.7997 57.5303C69.8061 57.2132 69.8095 56.8746 69.8095 56.5148L69.8118 54.2467C69.8152 51.0957 69.819 47.6521 69.7649 46.4744L69.7607 46.406L69.7513 46.3403C69.7388 46.2771 69.726 46.2291 69.7048 46.1691L69.6829 46.1207L69.6583 46.0761L69.6288 46.033L69.596 45.9922L69.5612 45.9559L69.5185 45.9188L69.4746 45.8871L69.3658 45.8251C69.2286 45.7658 69.085 45.7227 68.9432 45.6751L69.2101 45.0038L69.4784 45.1081C69.5037 45.118 69.5408 45.127 69.585 45.135C69.6326 45.144 69.6886 45.1527 69.749 45.1592L69.9414 45.1762L70.1746 45.1886C70.7041 45.206 71.2333 45.2075 71.762 45.1886ZM83.6055 59.484C83.7352 59.459 83.8633 59.431 83.9892 59.4016C84.1196 59.3717 84.2439 59.3396 84.3614 59.3071C84.4779 59.2742 84.5969 59.2383 84.7167 59.1986C84.8301 59.1612 84.9439 59.1204 85.0561 59.0765C85.1665 59.0334 85.2738 58.9877 85.3762 58.9408C85.479 58.8936 85.58 58.8429 85.6797 58.7889C85.7784 58.7356 85.874 58.68 85.9647 58.6222C86.055 58.5648 86.142 58.5043 86.2255 58.4419L86.4273 58.2889L86.8688 58.7352C86.6208 59.2266 86.3737 59.713 86.1405 60.2119L86.0592 60.3959L86.004 60.5343L85.9878 60.5857V60.8797C84.2129 60.8797 82.35 60.8132 80.4988 60.7996H79.2254C78.1426 60.8087 77.0715 60.8457 76.0329 60.9345L75.904 60.9497L75.8053 60.9651L75.534 61.0196L75.3904 60.4379C75.6232 60.3094 75.7861 60.2304 75.9641 60.029C76.0431 59.9243 76.0756 59.8634 76.1164 59.7379C76.1296 59.6816 76.1364 59.6381 76.1413 59.5803L76.1591 59.1464L76.1814 58.2393L76.1863 57.742L76.1905 56.6176L76.189 55.2267C76.1878 54.7066 76.1912 54.1843 76.1946 53.6612C76.1999 52.75 76.2052 51.8365 76.189 50.9324L76.1905 49.4943L76.1863 48.3291L76.1814 47.8226L76.1591 46.9061L76.1368 46.4056C76.1281 46.3388 76.1179 46.2866 76.1005 46.2212L76.082 46.1687L76.0348 46.0727L75.9769 45.991L75.9414 45.9536L75.8571 45.8841L75.8076 45.8523L75.7547 45.824C75.6368 45.7703 75.5139 45.731 75.3907 45.6883L75.5306 44.991L75.8488 45.104C75.879 45.1149 75.9191 45.1255 75.9656 45.1338L76.1338 45.158L76.3303 45.1758L76.5605 45.1886C79.4118 45.2884 82.3526 45.2022 85.2137 45.2022C85.2137 45.5477 85.2111 45.5477 85.2961 45.8761L85.3626 46.1029L85.4541 46.3913L85.5584 46.702C85.6393 46.9272 85.7198 47.1377 85.8094 47.3588L85.36 47.8135L85.154 47.62C85.0867 47.5569 85.0176 47.4968 84.9476 47.4412C84.8739 47.3823 84.7984 47.3263 84.722 47.2742C84.6438 47.2205 84.564 47.1702 84.4839 47.123C84.4026 47.0761 84.318 47.03 84.2326 46.9869C84.1441 46.9435 84.0549 46.9019 83.9654 46.8641C83.8716 46.824 83.7775 46.7866 83.6845 46.7537C83.5934 46.7205 83.4948 46.688 83.3905 46.6566C83.2869 46.6252 83.1845 46.5973 83.0813 46.5712C82.9728 46.544 82.8636 46.5194 82.7551 46.4967C82.6448 46.4744 82.531 46.4533 82.4154 46.4344C82.3001 46.4155 82.1822 46.3981 82.0612 46.3826L81.695 46.3418L81.314 46.3108L80.9217 46.2892L80.5169 46.2768L79.7349 46.2703C79.535 46.2692 79.3294 46.2677 79.1207 46.2707C78.9378 46.2734 78.7511 46.2805 78.5602 46.2942C78.5164 47.5981 78.5183 48.7622 78.5206 50.5741L78.5228 52.2609L79.9953 52.2337L80.6545 52.2152L81.2286 52.1932L81.726 52.166L82.147 52.1339C82.2725 52.1233 82.3889 52.1101 82.4978 52.0961C82.6028 52.0825 82.6988 52.0678 82.7858 52.0515C82.8621 52.0371 82.932 52.0213 82.9944 52.0046C83.0567 51.988 83.1104 51.9699 83.1569 51.9517C83.2019 51.9332 83.2416 51.9143 83.2756 51.8954C83.3085 51.875 83.3376 51.8546 83.3614 51.8346C83.3837 51.8145 83.4033 51.7922 83.4215 51.7688C83.4396 51.7446 83.4555 51.7189 83.4691 51.6921L83.5111 51.5953C83.5522 51.4732 83.59 51.3527 83.6275 51.2302L84.2859 51.3629L84.1993 51.8013L84.1747 51.9457L84.1419 52.2171C84.1316 52.3611 84.1252 52.5001 84.1218 52.6449L84.1222 52.9828L84.1316 53.27C84.146 53.453 84.1676 53.6181 84.1985 53.7988L84.2692 54.1507L83.6823 54.5059C83.6244 54.3585 83.5677 54.2104 83.5069 54.0633L83.4559 53.9609C83.4385 53.9299 83.42 53.9008 83.3996 53.8748C83.3799 53.8494 83.3568 53.8245 83.3311 53.8018C83.3058 53.7784 83.276 53.7568 83.2419 53.7353C83.2072 53.7145 83.1664 53.6937 83.1199 53.6744C83.0722 53.6544 83.0182 53.6355 82.9573 53.6181C82.8942 53.5996 82.8243 53.583 82.7483 53.5675C82.6663 53.5508 82.5718 53.535 82.4645 53.5202C82.356 53.5051 82.2407 53.4915 82.1179 53.4802L81.7022 53.4484L81.2093 53.4227L80.6409 53.4038L79.9878 53.391L79.2621 53.3842L78.5228 53.3808L78.5209 55.2974C78.5183 57.3209 78.5164 58.663 78.5568 59.7481L79.2496 59.7602L80.1197 59.7633L80.5834 59.7595L81.0396 59.7481L81.4848 59.7292L81.9339 59.7001L82.3719 59.6623L82.7918 59.6143L83.2045 59.5554C83.3345 59.535 83.4691 59.5108 83.6055 59.484ZM100.439 59.3815C100.552 59.3244 100.663 59.2628 100.772 59.1978C100.881 59.1332 100.987 59.0637 101.091 58.9919C101.193 58.9204 101.295 58.8429 101.396 58.7617C101.495 58.6812 101.593 58.5969 101.69 58.5073C101.788 58.4181 101.882 58.3248 101.975 58.2284C102.068 58.132 102.162 58.0303 102.252 57.9249C102.34 57.8225 102.43 57.7125 102.52 57.5961C102.61 57.4804 102.698 57.3621 102.783 57.2427L102.915 57.0533L103.434 57.2631C103.417 57.7646 103.398 58.2685 103.376 58.77L103.307 58.8482C103.219 58.9465 103.126 59.0429 103.031 59.1362C102.935 59.2307 102.836 59.3222 102.734 59.4095C102.632 59.4979 102.527 59.5845 102.42 59.6665C102.313 59.7481 102.202 59.8283 102.087 59.9061C101.973 59.9832 101.856 60.0584 101.737 60.1295C101.618 60.2009 101.495 60.2701 101.37 60.3351C101.246 60.4009 101.118 60.464 100.987 60.5237C100.856 60.5842 100.724 60.6405 100.593 60.6923C100.458 60.7456 100.321 60.7966 100.184 60.8427C100.045 60.8899 99.9048 60.9342 99.7645 60.9735C99.6209 61.0139 99.4765 61.0513 99.3321 61.085C99.1893 61.1182 99.0423 61.1485 98.893 61.1764C98.7441 61.2033 98.5936 61.2278 98.4447 61.2475C98.2962 61.2671 98.1435 61.2845 97.987 61.2985C97.837 61.3121 97.6816 61.3219 97.5221 61.3299C97.3664 61.3367 97.2122 61.3401 97.0595 61.3401C96.7609 61.3401 96.4646 61.3268 96.1736 61.3011C95.8777 61.2743 95.5863 61.2354 95.3001 61.184C95.0125 61.1326 94.7283 61.0672 94.4498 60.9905C94.1701 60.9134 93.8961 60.8238 93.6304 60.7229C93.3624 60.6212 93.1008 60.5071 92.8465 60.382C92.5921 60.2565 92.3461 60.1189 92.108 59.9711C91.871 59.8237 91.6419 59.6646 91.4208 59.4942C91.202 59.3256 90.9919 59.1457 90.7915 58.9563C90.5935 58.7677 90.4053 58.5697 90.2273 58.3629C90.0515 58.1573 89.886 57.943 89.7314 57.7189C89.5798 57.4993 89.4373 57.2688 89.307 57.0288C89.1781 56.7925 89.0598 56.5473 88.9551 56.2948C88.8515 56.0457 88.7593 55.7887 88.6803 55.5264C88.6032 55.2671 88.5359 54.9988 88.483 54.7244C88.4312 54.456 88.3912 54.1798 88.3647 53.8959C88.339 53.6151 88.325 53.3294 88.325 53.0414C88.325 52.753 88.339 52.4673 88.3647 52.1864C88.3912 51.9022 88.4312 51.6256 88.483 51.358C88.5359 51.0836 88.6032 50.8152 88.6803 50.556C88.7593 50.2925 88.8515 50.0359 88.9551 49.7861C89.0598 49.534 89.1781 49.2898 89.307 49.0532C89.4373 48.8128 89.5798 48.5827 89.7318 48.3627C89.886 48.1382 90.053 47.9228 90.2288 47.7179C90.4057 47.5112 90.5939 47.3135 90.7915 47.1257C90.9919 46.9359 91.202 46.756 91.4208 46.5874C91.6416 46.4177 91.8706 46.2579 92.1076 46.1105C92.3461 45.9623 92.5936 45.8251 92.8476 45.6996C93.1016 45.5742 93.3635 45.46 93.6304 45.3591C93.8953 45.2578 94.1701 45.1682 94.4501 45.0908C94.7287 45.0136 95.0125 44.9486 95.3001 44.8972C95.5893 44.8455 95.8807 44.8058 96.1728 44.7805C96.4642 44.7548 96.7606 44.7415 97.0595 44.7415C97.2092 44.7415 97.3611 44.7453 97.515 44.7517C97.6707 44.7585 97.8234 44.768 97.9715 44.7812C98.117 44.7933 98.2682 44.8096 98.4213 44.8296C98.5736 44.8489 98.7248 44.8727 98.8737 44.898C99.0203 44.9237 99.1677 44.9524 99.3121 44.9845C99.4591 45.0167 99.605 45.0518 99.7475 45.09C99.8866 45.1278 100.027 45.1686 100.168 45.214C100.306 45.2578 100.444 45.3054 100.579 45.3561C100.715 45.4067 100.848 45.46 100.974 45.5144C101.101 45.5689 101.229 45.6278 101.355 45.6898C101.479 45.7514 101.6 45.8153 101.718 45.8807C101.833 45.9461 101.95 46.016 102.065 46.0893C102.175 46.1596 102.285 46.2341 102.393 46.3119C102.497 46.3875 102.6 46.4665 102.701 46.5493C102.798 46.6279 102.893 46.7114 102.988 46.7987C103.08 46.8849 103.17 46.9745 103.256 47.0656L103.329 47.1464C103.387 47.888 103.407 48.6567 103.438 49.4002L102.826 49.5022L102.734 49.2996C102.673 49.1677 102.608 49.0388 102.539 48.913C102.47 48.7875 102.396 48.6639 102.319 48.5452C102.245 48.4285 102.164 48.3147 102.08 48.2036C101.998 48.0951 101.91 47.9878 101.819 47.8861C101.727 47.7833 101.632 47.685 101.535 47.592C101.438 47.4987 101.337 47.4095 101.232 47.3241C101.126 47.2379 101.018 47.1566 100.907 47.0807C100.795 47.0032 100.679 46.9291 100.561 46.8603C100.441 46.79 100.317 46.7246 100.194 46.6657C100.068 46.6041 99.938 46.5474 99.8057 46.4952C99.6715 46.4419 99.5351 46.3936 99.3975 46.3512C99.2558 46.3063 99.1126 46.2662 98.9674 46.2314C98.823 46.197 98.6722 46.1656 98.5165 46.1388C98.3642 46.1127 98.2081 46.0901 98.0505 46.073C97.8914 46.0553 97.7292 46.0421 97.5645 46.033C97.4001 46.0243 97.2315 46.0198 97.0595 46.0198C96.8456 46.0198 96.6347 46.0307 96.4287 46.0523C96.2208 46.0734 96.0141 46.1063 95.8119 46.1494C95.6101 46.1917 95.4101 46.2458 95.214 46.3093C95.0167 46.3747 94.8239 46.4495 94.6365 46.5342C94.4471 46.6196 94.2646 46.7141 94.0881 46.8176C93.9112 46.9208 93.7388 47.0361 93.5722 47.1597C93.4074 47.2825 93.2467 47.4155 93.0933 47.558C92.9417 47.6975 92.7962 47.8468 92.6564 48.0067C92.5188 48.1628 92.388 48.3291 92.2641 48.5029C92.1412 48.676 92.0259 48.8567 91.9182 49.0449C91.8124 49.2312 91.713 49.4262 91.6212 49.6296C91.5312 49.8291 91.4499 50.0363 91.3766 50.2494C91.3037 50.4622 91.2394 50.6811 91.1842 50.9052C91.1291 51.1282 91.083 51.3565 91.0455 51.59C91.01 51.8191 90.982 52.0564 90.9631 52.3013C90.945 52.5421 90.9352 52.7889 90.9352 53.0414C90.9352 53.2904 90.945 53.5361 90.9631 53.775C90.982 54.0203 91.0104 54.258 91.0459 54.4863C91.0833 54.7202 91.1298 54.9497 91.1854 55.1711C91.2402 55.3945 91.3048 55.6137 91.3781 55.8254C91.4518 56.04 91.5338 56.2472 91.6234 56.4463C91.7145 56.6497 91.8139 56.8443 91.9205 57.031C92.0286 57.22 92.145 57.4018 92.2678 57.5742C92.3914 57.7488 92.5229 57.9151 92.6605 58.0715C92.7996 58.2307 92.947 58.3815 93.0997 58.5224C93.2535 58.6642 93.4134 58.7972 93.5778 58.9197C93.7441 59.0436 93.9165 59.1578 94.093 59.2625C94.2699 59.3664 94.4535 59.462 94.6421 59.5471C94.8288 59.631 95.0208 59.7062 95.217 59.7708C95.4132 59.8351 95.6139 59.8891 95.8149 59.9318C96.0171 59.9753 96.2224 60.0078 96.4299 60.0293C96.6351 60.0505 96.8456 60.0615 97.0595 60.0615C97.2349 60.0615 97.405 60.0584 97.5667 60.0516C97.7327 60.0445 97.8933 60.0346 98.0452 60.0203C98.196 60.0067 98.3472 59.9889 98.4973 59.9673C98.6492 59.9458 98.7936 59.9212 98.9293 59.8936C99.0649 59.8668 99.201 59.8343 99.3363 59.798C99.4697 59.7633 99.5986 59.7236 99.7226 59.6812C99.8484 59.6389 99.9709 59.5917 100.09 59.5421C100.21 59.4923 100.327 59.4382 100.439 59.3815ZM118.979 46.0485C119.076 46.3603 119.176 46.6679 119.28 46.9767L119.42 47.3638L118.999 47.7901L118.797 47.6419C118.708 47.5762 118.616 47.5134 118.521 47.4526C118.426 47.391 118.328 47.332 118.231 47.2772C118.137 47.2235 118.04 47.1718 117.94 47.1226C117.839 47.0724 117.738 47.0259 117.64 46.9835C117.538 46.9393 117.435 46.8981 117.332 46.8603C117.228 46.8225 117.124 46.7862 117.019 46.7537C116.914 46.7216 116.806 46.6899 116.696 46.6604C116.588 46.632 116.479 46.6056 116.369 46.5822C116.262 46.5591 116.152 46.5372 116.043 46.5179L115.708 46.4639L115.366 46.4211L115.016 46.3886L114.666 46.3648L114.313 46.3493L113.973 46.3418L113.708 46.3403C113.707 50.4554 113.645 54.591 113.723 58.7057L113.736 59.1487L113.753 59.5792C113.759 59.6431 113.765 59.693 113.779 59.7549C113.795 59.8113 113.81 59.8528 113.835 59.9061L113.861 59.9522L113.925 60.0392L113.965 60.083L114.009 60.1246C114.065 60.1703 114.116 60.2066 114.177 60.2463C114.309 60.3211 114.446 60.3854 114.582 60.4519L114.303 61.0131L114.086 60.9651L113.995 60.9497L113.87 60.9345C113.039 60.8627 112.21 60.8684 111.378 60.9198L111.213 60.9345L111.086 60.9497L110.997 60.9648L110.721 61.0249L110.574 60.4337C110.784 60.323 110.965 60.2372 111.141 60.0762L111.215 59.9919C111.236 59.964 111.255 59.9348 111.27 59.9069L111.291 59.8615L111.325 59.7625L111.337 59.7062C111.362 59.5255 111.36 59.3316 111.367 59.1491L111.38 58.7065C111.458 54.5913 111.396 50.4558 111.395 46.3403C111.191 46.341 110.991 46.3452 110.796 46.352L110.441 46.3697L110.095 46.3954L109.741 46.431L109.398 46.4759C109.281 46.4933 109.168 46.5119 109.06 46.5319C108.948 46.5523 108.839 46.575 108.732 46.5988C108.622 46.6226 108.511 46.6498 108.4 46.6793C108.289 46.7088 108.18 46.7401 108.074 46.7734C107.965 46.8074 107.858 46.8445 107.754 46.8819C107.649 46.9204 107.546 46.9612 107.446 47.0032C107.345 47.0455 107.244 47.0916 107.144 47.1396C107.043 47.188 106.945 47.239 106.848 47.2919C106.75 47.346 106.653 47.4023 106.559 47.4601C106.466 47.5183 106.372 47.5803 106.28 47.645L106.101 47.7719L105.65 47.4072L105.726 47.2103L105.799 47.0032L106.006 46.3705C106.08 46.1301 106.151 45.892 106.218 45.6505C106.263 45.4611 106.252 45.4101 106.252 45.2022H118.829C118.829 45.4056 118.817 45.46 118.862 45.6456L118.979 46.0485ZM47.6059 60.0399L47.926 59.973L48.1419 60.5199L47.8769 60.7255L47.776 60.7902L47.6747 60.8468L47.573 60.8956L47.468 60.9379L47.3633 60.9731L47.259 61.0029L47.1535 61.026C46.8629 61.0766 46.6316 61.0834 46.3356 61.0865C46.2011 61.0868 46.071 61.0774 45.9452 61.0604C45.8197 61.0423 45.6984 61.0162 45.5805 60.9822C45.4641 60.9478 45.3499 60.9062 45.2426 60.8567C45.1352 60.8083 45.0302 60.7516 44.9281 60.6873C44.828 60.6235 44.7316 60.5551 44.6401 60.481C44.5487 60.4073 44.4606 60.326 44.3752 60.2399C44.2909 60.1552 44.2089 60.0637 44.1299 59.9685C44.052 59.8736 43.9764 59.7738 43.9042 59.6695C43.8328 59.5682 43.7652 59.4632 43.7002 59.3573C43.634 59.2485 43.5705 59.1381 43.5108 59.027C43.4507 58.9166 43.3914 58.8006 43.3343 58.6816C43.2765 58.5636 43.2213 58.4442 43.1684 58.3251L43.0127 57.9612L42.8634 57.5908L42.5818 56.8519L42.2447 56.0264C42.1781 55.8666 42.1109 55.7093 42.0436 55.5593C41.9756 55.4092 41.9068 55.2634 41.8368 55.1269C41.7673 54.9897 41.6947 54.8593 41.6195 54.7372C41.5477 54.6197 41.471 54.509 41.3909 54.4069C41.3122 54.3071 41.2302 54.2157 41.1441 54.1367C41.0598 54.0596 40.9706 53.9923 40.878 53.9375C40.7884 53.8857 40.6924 53.843 40.5922 53.8131L40.3254 53.7973C40.1421 53.7946 39.9592 53.7954 39.7755 53.7965L39.6647 53.7988L39.6663 55.6772L39.6731 57.2045L39.681 57.8727L39.6935 58.4801L39.7101 59.0429L39.7324 59.5822C39.7381 59.6461 39.7453 59.6982 39.7585 59.7606L39.7944 59.8714L39.8428 59.9704L39.9044 60.0596L39.9407 60.1019L40.0261 60.182C40.1682 60.2897 40.3024 60.3468 40.4637 60.4251L40.3152 61.026L40.0427 60.9651L39.9512 60.9497L39.8276 60.9345C39.3866 60.8964 38.9504 60.8831 38.5082 60.8794C38.0607 60.8839 37.62 60.8971 37.174 60.9349L37.0436 60.95L36.9458 60.9659L36.7303 61.0094L36.4537 60.4504C36.64 60.3608 36.8101 60.2882 36.9768 60.1669L37.0712 60.0845C37.1124 60.0395 37.1415 60.0033 37.1759 59.9526L37.202 59.9061C37.2568 59.7874 37.2731 59.713 37.2829 59.583C37.3093 59.0062 37.3218 58.4366 37.3275 57.7499C37.3335 57.0609 37.3324 56.2509 37.3309 55.1972V55.1862C37.3252 54.2603 37.3271 53.3324 37.3286 52.4064L37.3316 49.4803L37.3275 48.3124C37.3252 47.9605 37.3203 47.6378 37.3135 47.3316C37.3063 47.0281 37.2965 46.7394 37.2829 46.451L37.2697 46.2874L37.2576 46.2159L37.2247 46.098L37.205 46.0519L37.1831 46.0103C37.1298 45.9359 37.1026 45.9151 37.0179 45.8818L36.9303 45.8625C36.821 45.8527 36.7092 45.8501 36.5996 45.8448V45.206L37.0947 45.1633C38.0876 45.1096 39.0835 45.0949 40.0779 45.087C40.3107 45.087 40.5386 45.0926 40.7597 45.1028C40.9846 45.1146 41.203 45.1312 41.4147 45.1531C41.6271 45.175 41.8334 45.2026 42.0319 45.2355C42.2356 45.2691 42.4306 45.3085 42.6154 45.3504C42.8033 45.3946 42.9851 45.4449 43.1601 45.4993C43.3388 45.5553 43.51 45.6172 43.6733 45.6826C43.8377 45.7491 43.995 45.821 44.1431 45.8973C44.2947 45.9748 44.4383 46.0579 44.5725 46.1441C44.7131 46.2352 44.8453 46.3304 44.9682 46.4306C45.0914 46.5308 45.2082 46.637 45.3148 46.7477C45.424 46.8603 45.5238 46.9767 45.6137 47.0958C45.7048 47.2164 45.7872 47.3426 45.8613 47.4722C45.9357 47.6038 46.0015 47.7391 46.0563 47.8766C46.1122 48.0157 46.1595 48.1586 46.1962 48.3033C46.2336 48.4504 46.2623 48.5993 46.2812 48.7493C46.3001 48.9009 46.3092 49.0555 46.3092 49.2104C46.3092 49.3552 46.3024 49.4992 46.2887 49.6402C46.2751 49.7849 46.2547 49.9236 46.2294 50.0567C46.2022 50.1924 46.1682 50.3254 46.1281 50.455C46.0877 50.5851 46.0401 50.7128 45.9864 50.8368C45.9312 50.9626 45.8707 51.0836 45.8057 51.1988C45.7381 51.3175 45.664 51.432 45.585 51.5409C45.5049 51.6516 45.4183 51.759 45.3265 51.861C45.2324 51.9657 45.133 52.0655 45.029 52.1604C44.9357 52.2458 44.8374 52.3278 44.7354 52.4064C44.6318 52.4858 44.5226 52.5621 44.4096 52.6354C44.2958 52.7088 44.1775 52.7794 44.0562 52.8456C43.9349 52.9117 43.809 52.9748 43.6809 53.0334C43.5584 53.0894 43.4333 53.1427 43.3059 53.191C43.1778 53.2405 43.0467 53.287 42.9159 53.3294C42.8052 53.3653 42.6872 53.4004 42.5648 53.4333L42.3807 53.4813C42.4465 53.527 42.5111 53.5754 42.5742 53.6264C42.6876 53.716 42.8002 53.8165 42.9102 53.9243C43.0357 54.0463 43.1582 54.1775 43.2765 54.3166C43.3955 54.4553 43.5119 54.6019 43.6246 54.7524C43.7436 54.9115 43.8627 55.0808 43.9791 55.2558C44.0936 55.4262 44.2074 55.6039 44.3204 55.7861C44.4288 55.961 44.54 56.1451 44.6507 56.3314C45.0185 56.9573 45.3597 57.5859 45.7218 58.2137L45.884 58.4828L46.0465 58.7401L46.2098 58.9839L46.3685 59.2039L46.5223 59.3989C46.5737 59.4609 46.6236 59.5187 46.672 59.5709C46.7242 59.6261 46.7737 59.676 46.8209 59.7202C46.87 59.7648 46.9196 59.8071 46.9683 59.8441C47.0148 59.88 47.0609 59.9125 47.1066 59.9398C47.1505 59.9658 47.1958 59.9885 47.2408 60.0067C47.2835 60.0248 47.327 60.0392 47.3682 60.0479C47.406 60.0562 47.4438 60.0615 47.4808 60.0618L47.6059 60.0399ZM32.5558 46.2235C32.7085 46.3214 32.8518 46.4234 32.9833 46.5285C33.1186 46.637 33.2445 46.75 33.3594 46.8656C33.4762 46.9835 33.5842 47.1068 33.6829 47.2356C33.7827 47.3638 33.8719 47.4968 33.9512 47.6325C34.031 47.7701 34.1013 47.9125 34.1618 48.0584C34.223 48.2058 34.2736 48.3563 34.3137 48.5082C34.3541 48.6609 34.3844 48.8181 34.4048 48.978C34.4248 49.1386 34.4358 49.3008 34.4358 49.4637C34.4358 49.6542 34.4259 49.8412 34.407 50.0234C34.3893 50.2067 34.3617 50.3836 34.3247 50.5537C34.2876 50.7275 34.2411 50.8946 34.1856 51.0552C34.1308 51.2166 34.0654 51.3738 33.9917 51.5235C33.9172 51.6762 33.8341 51.8213 33.7415 51.9597C33.6493 52.0995 33.5476 52.2337 33.4372 52.3607C33.3272 52.4888 33.2078 52.6105 33.0808 52.7254C32.9534 52.8407 32.8155 52.9507 32.6704 53.0531C32.5264 53.1551 32.3744 53.2511 32.2157 53.3396C32.0573 53.4288 31.8884 53.5115 31.713 53.5883C31.5384 53.6642 31.3547 53.7349 31.165 53.7988C30.9737 53.8623 30.7745 53.9212 30.5693 53.9719C30.3626 54.0229 30.149 54.0679 29.9298 54.1053C29.7117 54.1435 29.4853 54.1756 29.2518 54.2009C29.0182 54.227 28.7782 54.2459 28.5329 54.2588C28.2846 54.2712 28.0299 54.2777 27.7721 54.2777L27.3356 54.2625L27.334 56.0589C27.3325 56.9573 27.3314 57.5549 27.3367 58.0696C27.3424 58.5806 27.3552 59.0119 27.3809 59.5799C27.3866 59.6378 27.3941 59.6828 27.407 59.7387C27.4244 59.7939 27.441 59.8366 27.4652 59.8887L27.4913 59.9348L27.5589 60.0286C27.6217 60.0996 27.6734 60.1484 27.7471 60.2081C27.8738 60.2977 27.9962 60.3627 28.1315 60.4379L27.9864 61.026L27.7139 60.9651L27.6232 60.9497L27.4992 60.9345C26.6114 60.8582 25.6068 60.851 24.7209 60.9497L24.6173 60.9659L24.3463 61.0181L24.2027 60.4375C24.4159 60.3211 24.5644 60.247 24.736 60.0743C24.7643 60.0445 24.7897 60.0135 24.8123 59.9817C24.8936 59.8593 24.9253 59.7776 24.9495 59.6329L24.9545 59.5811C24.9654 59.329 24.9741 59.0807 24.979 58.8278C24.9851 58.5716 24.9888 58.3078 24.9896 58.0277C24.993 57.5167 24.9907 56.9456 24.9877 56.2551L24.9764 53.0414L24.9873 50.0196C24.9938 48.4269 24.9994 47.4246 24.9545 46.451L24.9405 46.287L24.9276 46.2125L24.9125 46.1505L24.8947 46.0965L24.8755 46.0511L24.8547 46.0126C24.8293 45.9767 24.8165 45.9593 24.7836 45.9302C24.7485 45.9064 24.7292 45.8973 24.6895 45.8818L24.6487 45.8705C24.5259 45.8497 24.3955 45.8508 24.2711 45.8448V45.2026L24.7745 45.1633C25.7576 45.1115 26.7418 45.0953 27.726 45.087C27.9735 45.087 28.2158 45.093 28.4528 45.1047C28.6913 45.1165 28.9252 45.135 29.152 45.1584C29.3791 45.1822 29.5991 45.2125 29.8115 45.2472C30.0307 45.2835 30.2413 45.3258 30.4408 45.3719C30.6438 45.4196 30.8407 45.4736 31.0304 45.533C31.2224 45.5919 31.4061 45.6584 31.5819 45.7287C31.7595 45.7998 31.9296 45.878 32.0917 45.9593C32.2535 46.0417 32.4084 46.1301 32.5558 46.2235ZM61.8366 35.329L61.9171 35.4068L61.9976 35.4783L62.0781 35.5437L62.1605 35.6038L62.2368 35.6544L62.3132 35.6967L62.3846 35.733C62.4901 35.7742 62.5967 35.812 62.7036 35.8498L62.5524 36.4591L62.1454 36.4005C61.0954 36.2977 59.9415 36.3105 58.8905 36.3865L58.7412 36.4016L58.6338 36.4164L58.3625 36.4693L58.2132 35.8687L58.5212 35.7296L58.5964 35.6899L58.6641 35.6484L58.7215 35.6075L58.7718 35.5663L58.8115 35.5282L58.8443 35.4892L58.8704 35.4514L58.8991 35.3864L58.9101 35.3199L58.9093 35.284L58.9041 35.2455L58.8931 35.2012L58.7177 34.7764C58.4728 34.2087 58.2207 33.6475 57.9633 33.0847L57.7335 32.593L57.2358 31.5464H50.2119L49.7482 32.5767C49.4862 33.1686 49.2307 33.7601 48.9813 34.3569L48.6411 35.2005C48.6305 35.2443 48.6271 35.2685 48.626 35.3139L48.6392 35.3785L48.6683 35.4424L48.6959 35.4809L48.7307 35.5206L48.7734 35.5611L48.8857 35.645L49.0312 35.7273L49.3422 35.8687L49.1929 36.4693C48.9665 36.4258 48.7651 36.3895 48.5357 36.3646C48.3131 36.3476 48.0976 36.3374 47.8743 36.3321L47.3523 36.3359C47.1384 36.3438 46.9313 36.3574 46.7177 36.3767C46.5412 36.3986 46.3708 36.4247 46.1954 36.4534L45.9048 35.8668C46.0907 35.8041 46.2687 35.7504 46.446 35.6661L46.5832 35.5868L46.6508 35.5403L46.7824 35.4314L46.8477 35.3672L46.9139 35.2938L46.9766 35.2179L47.0386 35.1343L47.1025 35.038L47.1626 34.9371L47.2227 34.8286C47.5243 34.2284 47.8489 33.6354 48.1532 33.0329L48.468 32.3927L48.8142 31.6742L49.8075 29.5799L50.7955 27.4831C51.283 26.4369 51.7664 25.3903 52.2476 24.3415L53.1652 22.307L53.6853 21.1327C53.7752 20.9275 53.8659 20.7219 53.9514 20.5178L53.9722 20.4686H54.6767L54.7538 20.6508C55.2942 21.9782 56.5188 24.6061 57.989 27.7646L58.3655 28.5761C58.9528 29.8252 59.5383 31.0759 60.1354 32.3212C60.3259 32.7079 60.516 33.0938 60.7107 33.4782L60.9839 34.0028C61.1181 34.2541 61.2481 34.51 61.3914 34.7564L61.4579 34.8611L61.6004 35.0591L61.7546 35.2413L61.8366 35.329ZM51.1749 29.3615L50.7248 30.3377H56.6734C56.4455 29.8305 56.2108 29.3286 55.9723 28.8259L55.0837 26.8738L53.9926 24.4515L53.6883 23.7939L53.4048 24.4152L52.299 26.9071L51.8998 27.7903L51.4263 28.8225L51.1749 29.3615ZM30.9847 52.1127C31.0652 52.0402 31.1415 51.9627 31.2118 51.8814C31.2825 51.7998 31.3483 51.7132 31.4095 51.6225C31.47 51.5303 31.5267 51.4339 31.5769 51.3353C31.6272 51.2351 31.6737 51.1297 31.7145 51.0205C31.7542 50.9112 31.7905 50.7963 31.8215 50.6761C31.8528 50.5556 31.8789 50.4305 31.8993 50.3005C31.9201 50.1738 31.9356 50.0385 31.9462 49.8972C31.9564 49.7573 31.9617 49.613 31.9617 49.4637C31.9617 49.3053 31.9545 49.1549 31.9409 49.0143C31.9273 48.8718 31.9069 48.7365 31.8793 48.6076C31.8536 48.481 31.8192 48.3604 31.7795 48.2455C31.7395 48.1303 31.693 48.0214 31.6408 47.919C31.589 47.8173 31.5301 47.7213 31.4658 47.631C31.4012 47.5414 31.3313 47.456 31.2549 47.3766C31.1793 47.2984 31.0962 47.2235 31.0077 47.154C30.9197 47.0845 30.8252 47.0198 30.7247 46.9597C30.6249 46.8993 30.5187 46.8429 30.4068 46.7923C30.2942 46.7413 30.1751 46.6929 30.05 46.6502C29.9268 46.6071 29.7968 46.5678 29.6619 46.533C29.5247 46.4975 29.381 46.4657 29.234 46.4382C29.0877 46.4117 28.9373 46.3875 28.782 46.3675C28.6304 46.3482 28.4679 46.3316 28.2993 46.3176C28.1361 46.3051 27.9716 46.2945 27.8069 46.2874L27.3692 46.2749C27.3605 46.5319 27.3526 46.8252 27.3473 47.1483C27.3416 47.507 27.3382 47.9042 27.3356 48.3306C27.3314 49.1451 27.3318 50.0718 27.3333 51.0567L27.3356 52.9964L27.7864 53.0202L27.9773 53.0225C28.1417 53.0225 28.3046 53.016 28.4637 53.0051C28.6244 52.9949 28.779 52.979 28.9275 52.9594C29.0745 52.9397 29.2162 52.9147 29.3527 52.8853C29.4918 52.8558 29.6237 52.8218 29.748 52.7836C29.8727 52.7454 29.9926 52.7027 30.1059 52.6562C30.2178 52.609 30.3274 52.5576 30.4321 52.5005C30.5338 52.4453 30.6313 52.3856 30.7239 52.3202C30.8154 52.2556 30.9034 52.1864 30.9847 52.1127ZM42.9133 51.683C42.9896 51.615 43.0633 51.5413 43.1328 51.4615C43.2009 51.384 43.2651 51.3028 43.323 51.2181C43.3815 51.1319 43.436 51.0412 43.4851 50.9475C43.5342 50.8542 43.5784 50.7544 43.6185 50.6519C43.6571 50.5514 43.6918 50.4437 43.7221 50.3299C43.7519 50.2184 43.7776 50.1016 43.7973 49.9822C43.8177 49.8643 43.8324 49.7403 43.8423 49.6107C43.8528 49.4814 43.8574 49.3484 43.8574 49.2104C43.8574 49.0657 43.8513 48.9289 43.8392 48.8011C43.8275 48.6711 43.8098 48.5471 43.7859 48.43C43.7618 48.3132 43.7315 48.2021 43.6964 48.097C43.6616 47.9927 43.6204 47.8929 43.5739 47.7984C43.5278 47.7062 43.476 47.6181 43.4193 47.535C43.3615 47.4514 43.2995 47.3736 43.233 47.3014C43.1653 47.2292 43.092 47.1604 43.0138 47.0969C42.9337 47.0319 42.8498 46.9714 42.7606 46.9166C42.6717 46.8618 42.5757 46.8097 42.4741 46.7617C42.3713 46.7129 42.2643 46.6691 42.1543 46.629C42.044 46.5897 41.926 46.5531 41.8006 46.5198C41.6777 46.4869 41.5485 46.4571 41.4143 46.4314C41.282 46.406 41.1448 46.3834 41.0046 46.3645C40.8651 46.3452 40.7173 46.3297 40.5631 46.3161C40.4142 46.304 40.2646 46.2942 40.1145 46.2874L39.7203 46.2756L39.7052 46.7299L39.6912 47.332L39.6802 48.0407C39.6666 49.5389 39.6663 51.0363 39.6655 52.5345L39.7819 52.5383L40.0779 52.5402C40.2355 52.5402 40.3878 52.5349 40.5344 52.5255C40.6814 52.5171 40.8243 52.5028 40.9619 52.4846C41.0987 52.4665 41.2325 52.4434 41.3614 52.4162C41.4914 52.3886 41.615 52.3565 41.7329 52.321C41.8493 52.2851 41.9623 52.245 42.0712 52.2004C42.1781 52.1562 42.2828 52.1059 42.3837 52.0519C42.4805 52.0001 42.5735 51.9419 42.6634 51.8803C42.7504 51.8198 42.8339 51.7537 42.9133 51.683ZM61.9916 58.0757C62.125 57.92 62.2527 57.7533 62.3722 57.5794C62.4923 57.406 62.6046 57.2253 62.7082 57.0382C62.8117 56.8515 62.9077 56.6576 62.9958 56.4562C63.0831 56.2559 63.1628 56.0487 63.2331 55.8356C63.3038 55.6243 63.3658 55.4051 63.4195 55.1798C63.472 54.9583 63.517 54.7289 63.5525 54.4938C63.588 54.2622 63.6152 54.0237 63.6334 53.781C63.6511 53.5406 63.6595 53.2935 63.6595 53.0414C63.6595 52.7889 63.6511 52.5421 63.6334 52.3013C63.6152 52.0579 63.588 51.8198 63.5525 51.5878C63.5166 51.3527 63.472 51.124 63.4187 50.9018C63.3643 50.6731 63.3019 50.4543 63.2331 50.2464C63.1628 50.0336 63.0831 49.8265 62.9958 49.6262C62.9077 49.4247 62.8117 49.2301 62.7082 49.0441C62.6046 48.8567 62.4923 48.6756 62.3722 48.5025C62.2523 48.3283 62.125 48.1624 61.9919 48.0063C61.8566 47.8475 61.7145 47.6975 61.5671 47.5569C61.4186 47.4155 61.2632 47.2825 61.1022 47.1597C60.9393 47.0349 60.7715 46.9204 60.6014 46.8172C60.4302 46.7137 60.2522 46.6184 60.0693 46.5342C59.8871 46.4495 59.7 46.3747 59.5099 46.3104C59.3206 46.2465 59.1259 46.1925 58.9279 46.1494C58.731 46.1063 58.5306 46.0734 58.3288 46.0523C58.1289 46.0311 57.9248 46.0198 57.718 46.0198C57.5094 46.0198 57.3042 46.0311 57.1027 46.0523C56.8994 46.0734 56.6972 46.1063 56.498 46.1494C56.2988 46.1925 56.1027 46.2473 55.9114 46.3108C55.7202 46.375 55.5323 46.4499 55.3494 46.5342C55.1657 46.6184 54.9858 46.7141 54.8112 46.8191C54.6373 46.9238 54.4688 47.038 54.3078 47.1604C54.1471 47.2825 53.9903 47.4155 53.8395 47.558C53.691 47.6986 53.5481 47.8483 53.412 48.007C53.2775 48.1628 53.149 48.3287 53.0276 48.5025C52.9071 48.676 52.7937 48.8571 52.6894 49.0441C52.5858 49.2305 52.4887 49.4255 52.4002 49.6269C52.3126 49.8273 52.2324 50.0344 52.161 50.2475C52.0899 50.4588 52.0268 50.6773 51.9735 50.9014C51.9202 51.1229 51.8749 51.3527 51.839 51.5878C51.8031 51.8202 51.7759 52.0594 51.7577 52.3021C51.74 52.5425 51.7309 52.7893 51.7309 53.0414C51.7309 53.2927 51.74 53.5395 51.7577 53.7799C51.7762 54.0267 51.8031 54.2648 51.839 54.4938C51.8753 54.7316 51.9206 54.9606 51.9728 55.1794C52.0268 55.4036 52.0899 55.6224 52.161 55.8337C52.2324 56.0472 52.3126 56.254 52.3999 56.4531C52.4887 56.6553 52.5858 56.8508 52.6894 57.0367C52.7937 57.2242 52.9075 57.4048 53.0276 57.5783C53.149 57.7533 53.2775 57.9192 53.412 58.0753C53.5481 58.2344 53.6917 58.3841 53.8402 58.5247C53.991 58.6672 54.1475 58.7999 54.3082 58.9219C54.4699 59.0444 54.6389 59.1593 54.8139 59.264C54.9877 59.3683 55.1669 59.4632 55.3498 59.5478C55.5331 59.6325 55.7221 59.7066 55.9141 59.7716C56.1049 59.8347 56.3007 59.8891 56.4991 59.9318C56.6972 59.9753 56.899 60.0078 57.102 60.0293C57.3038 60.0505 57.509 60.0615 57.718 60.0615C57.9255 60.0615 58.1304 60.0505 58.3303 60.0293C58.5321 60.0078 58.7317 59.9757 58.9279 59.9318C59.1263 59.8891 59.3209 59.8347 59.5103 59.7708C59.7004 59.7066 59.8875 59.6329 60.0697 59.5482C60.2522 59.4632 60.4299 59.3683 60.6007 59.2647C60.7711 59.1612 60.939 59.047 61.1022 58.9219C61.2625 58.7995 61.4182 58.6661 61.5671 58.5251C61.7145 58.3849 61.8566 58.2348 61.9916 58.0757Z" fill="#D65CAF"/>
<path d="M30.0112 77.364V72.5439H26.1467L26.0915 74.3135C26.0367 75.9878 25.856 77.3171 25.1012 77.364H24.8336L24.8257 79.2518H25.5567L25.565 78.0481H30.0902V79.2518H30.8215V77.364H30.0112ZM26.7835 74.3838L26.8228 73.2277H29.233V77.364H26.1308C26.6028 76.9395 26.7359 75.7286 26.7835 74.3838ZM32.6849 77.364V75.5872H35.445V74.9186H32.6849V73.2277H35.7833V72.5439H31.8987V78.0481H35.8937V77.364H32.6849ZM40.9106 72.5439H36.3729V73.2277H38.2521V78.0481H39.0227V73.2277H40.9106V72.5439ZM44.2521 78.1112C45.1089 78.1112 45.8482 77.8126 46.3512 77.2464L45.8403 76.7513C45.4154 77.1988 44.8969 77.4112 44.291 77.4112C43.0487 77.4112 42.1291 76.5151 42.1291 75.2958C42.1291 74.0773 43.0487 73.1812 44.291 73.1812C44.8969 73.1812 45.4154 73.3853 45.8403 73.8339L46.3512 73.338C45.8482 72.7722 45.1089 72.4808 44.2597 72.4808C42.585 72.4808 41.3422 73.6683 41.3422 75.2958C41.3422 76.9237 42.5849 78.1112 44.2521 78.1112ZM51.1403 78.0481H52.0364L49.9766 75.2096L51.9419 72.5439H51.1006L49.3711 74.9345H48.2074V72.5439H47.4367V78.0481H48.2074V75.6265H49.3552L51.1403 78.0481ZM52.8464 78.0481H53.5698L56.8334 73.8101V78.0481H57.6037V72.5439H56.8803L53.6253 76.7899V72.5439H52.8464V78.0481ZM60.1046 77.364V75.5872H62.8644V74.9186H60.1046V73.2277H63.2023V72.5439H59.3177V78.0481H63.3126V77.364H60.1046ZM66.6624 72.5439V78.0481H67.4406V73.2277H70.6332V78.0481H71.4038V72.5439H66.6624ZM75.2646 72.5439H73.1182V78.0481H73.904V76.3813H75.2646C76.6959 76.3813 77.5611 75.6583 77.5611 74.4628C77.5611 73.267 76.6959 72.5439 75.2646 72.5439ZM75.2412 75.6968H73.904V73.2277H75.2412C76.2477 73.2277 76.7746 73.6763 76.7746 74.4628C76.7746 75.2489 76.2477 75.6968 75.2412 75.6968ZM82.5618 78.0481H83.3876L80.8871 72.5439H80.1081L77.6159 78.0481H78.4258L79.0313 76.6719H81.9567L82.5618 78.0481ZM79.3065 76.043L80.4936 73.346L81.6811 76.043H79.3065ZM86.9736 75.1783C87.516 74.9738 87.8459 74.5414 87.8459 73.9749C87.8459 73.016 86.8636 72.4578 85.715 72.4578C85.1179 72.4578 84.481 72.6071 83.9069 72.9291L84.1582 73.5742C84.6458 73.2753 85.1961 73.1339 85.6916 73.1339C86.4467 73.1339 87.0515 73.4714 87.0515 74.0697C87.0515 74.5807 86.6353 74.8869 85.935 74.8869H84.7637V75.5245H85.9902C86.8001 75.5245 87.2798 75.8231 87.2798 76.3892C87.2798 77.0654 86.5647 77.4354 85.723 77.4354C85.1409 77.4354 84.5037 77.254 84.0086 76.8688L83.7334 77.4505C84.3472 77.9067 85.1096 78.1112 85.8171 78.1112C87.0125 78.1112 88.0742 77.5216 88.0742 76.5071C88.0742 75.854 87.6573 75.3672 86.9736 75.1783ZM93.8225 77.364V72.5439H89.9572L89.9024 74.3135C89.8472 75.9878 89.6665 77.3171 88.9121 77.364H88.6442L88.6366 79.2518H89.3676L89.3755 78.0481H93.9007V79.2518H94.6321V77.364H93.8225ZM90.5944 74.3838L90.6333 73.2277H93.0439V77.364H89.9417C90.4137 76.9395 90.5472 75.7286 90.5944 74.3838ZM99.6573 72.5439V74.9107H96.4961V72.5439H95.7092V78.0481H96.4961V75.5951H99.6573V78.0481H100.443V72.5439H99.6573ZM102.158 78.0481H102.881L106.144 73.8101V78.0481H106.915V72.5439H106.191L102.936 76.7899V72.5439H102.158V78.0481ZM112.333 78.0481H113.229L111.169 75.2096L113.135 72.5439H112.293L110.564 74.9345H109.4V72.5439H108.629V78.0481H109.4V75.6265H110.548L112.333 78.0481ZM114.039 78.0481H114.763L118.026 73.8101V78.0481H118.796V72.5439H118.073L114.817 76.7899V72.5439H114.039V78.0481Z" fill="#302F2F"/>
<path d="M100.524 10.8549L102.377 3.91911C102.318 3.8953 102.262 3.86317 102.211 3.82651C102.147 3.7804 102.09 3.72446 102.044 3.66286C101.991 3.59407 101.95 3.51659 101.922 3.43269C101.895 3.35218 101.88 3.26601 101.88 3.17757C101.88 3.06985 101.902 2.96667 101.94 2.87218C101.981 2.77429 102.04 2.68547 102.112 2.61215C102.184 2.53883 102.273 2.47911 102.369 2.43829C102.463 2.39898 102.565 2.37744 102.672 2.37744C102.78 2.37744 102.882 2.39898 102.976 2.43829C103.073 2.47873 103.16 2.53883 103.233 2.61177C103.306 2.68547 103.364 2.77429 103.405 2.87218C103.443 2.96667 103.465 3.06985 103.465 3.17757C103.465 3.26601 103.45 3.35294 103.423 3.43344C103.395 3.51697 103.354 3.59407 103.302 3.66286C103.256 3.72446 103.199 3.78078 103.135 3.82689C103.085 3.86317 103.029 3.8953 102.97 3.91911L104.823 10.8549L107.613 5.95325C107.576 5.92566 107.541 5.89429 107.511 5.8599C107.468 5.8153 107.431 5.76579 107.401 5.7125C107.367 5.6524 107.341 5.58777 107.322 5.52012C107.305 5.45398 107.296 5.38443 107.296 5.313C107.296 5.20566 107.317 5.10172 107.356 5.00724C107.395 4.90972 107.455 4.82166 107.527 4.74834C107.599 4.67464 107.687 4.61341 107.784 4.57372C107.878 4.53404 107.98 4.51287 108.087 4.51287C108.194 4.51287 108.297 4.53404 108.39 4.57372C108.488 4.61341 108.575 4.67388 108.648 4.74834C108.721 4.82166 108.779 4.90972 108.819 5.00724C108.858 5.10172 108.88 5.20566 108.88 5.313C108.88 5.42072 108.858 5.5239 108.819 5.61839C108.779 5.71665 108.721 5.80472 108.648 5.87804C108.575 5.95136 108.487 6.01146 108.39 6.05152C108.297 6.09083 108.194 6.11275 108.087 6.11275L108.052 6.11124C107.934 6.8199 107.806 7.54632 107.675 8.28938L107.66 8.37631C107.149 11.2839 106.589 14.464 106.406 17.2688L106.4 17.358H98.9455L98.9403 17.2688C98.7562 14.4621 98.1964 11.2779 97.6847 8.36837L97.67 8.28333C97.5392 7.54179 97.4122 6.81801 97.2939 6.11124L97.2591 6.11275C97.1522 6.11275 97.0494 6.09083 96.956 6.05152C96.8592 6.01146 96.7712 5.95136 96.6986 5.87804C96.6253 5.80434 96.5663 5.71628 96.5263 5.61839C96.4877 5.5239 96.4658 5.42072 96.4658 5.313C96.4658 5.20566 96.4877 5.10173 96.5263 5.00799C96.5663 4.90973 96.6253 4.82128 96.6986 4.74721C96.7704 4.67388 96.8585 4.61341 96.9556 4.57372C97.0494 4.53404 97.1514 4.51287 97.2591 4.51287C97.3661 4.51287 97.4685 4.53404 97.5619 4.57372C97.6594 4.61417 97.7463 4.67464 97.8192 4.74758C97.8918 4.82166 97.9511 4.9101 97.9912 5.00799C98.0298 5.10173 98.0509 5.20566 98.0509 5.313C98.0509 5.38406 98.0422 5.4536 98.0245 5.51936C98.006 5.58777 97.9799 5.6524 97.9451 5.71212C97.9152 5.76465 97.8778 5.8153 97.8363 5.8599C97.8049 5.89354 97.7705 5.92528 97.7327 5.95325L100.524 10.8549Z" fill="#C69E62"/>
</svg>
