<svg width="183" height="31" viewBox="0 0 183 31" fill="none" xmlns="http://www.w3.org/2000/svg">
<path d="M0.824707 18.1353H2.32155V14.0836H8.58199V12.4864H2.32155V9.73245H8.82471V8.13525H0.824707V18.1353Z" fill="#131313"/>
<path d="M15.9628 8.13525H13.7138L8.82471 18.1353H10.6391L11.6875 15.9823H17.9184L19.0049 18.1353H20.8247L16.0008 8.19996L15.9628 8.13525ZM14.9306 9.59997L17.2231 14.3941H12.4589L14.7568 9.59997H14.9306Z" fill="#131313"/>
<path d="M25.8519 16.68H25.6777L21.6432 8.14693L19.8247 8.13525L24.6377 18.1236L26.8918 18.1353L31.8247 8.21707L30.0062 8.20539L25.8519 16.68Z" fill="#131313"/>
<path d="M42.14 7.57164C40.8896 7.22405 39.605 7.08299 38.3224 7.15247C37.0378 7.08768 35.7517 7.23079 34.4995 7.57789C34.1502 7.69203 33.8317 7.91148 33.5746 8.21513C33.3176 8.51872 33.1308 8.89612 33.0324 9.31078C32.8595 10.4138 32.7942 11.5369 32.8378 12.6577C32.7936 13.7815 32.8643 14.9074 33.0482 16.0109C33.1491 16.4165 33.3362 16.7844 33.5913 17.0791C33.8464 17.3739 34.161 17.5855 34.5047 17.6938C35.7549 18.0427 37.0395 18.1859 38.3224 18.1191C39.6105 18.1863 40.9003 18.0432 42.1558 17.6938C42.5007 17.5844 42.8161 17.3709 43.0713 17.0738C43.3266 16.7768 43.5129 16.4063 43.6123 15.9984C43.7872 14.8977 43.8543 13.7767 43.8121 12.6577C43.8559 11.5298 43.7853 10.3998 43.6018 9.29203C43.4992 8.885 43.3111 8.51583 43.0554 8.21921C42.7996 7.9226 42.4846 7.70832 42.14 7.59665V7.57164ZM41.7666 15.9171C41.5405 16.1423 40.757 16.4112 38.3224 16.4112C35.8877 16.4112 35.1094 16.1423 34.8833 15.9108C34.6572 15.6793 34.3943 14.9411 34.3943 12.6514C34.3943 10.3618 34.6572 9.59232 34.8781 9.37335C35.0989 9.15439 35.8772 8.87911 38.3224 8.87911C40.7675 8.87911 41.5458 9.14814 41.7719 9.37335C41.998 9.59857 42.2504 10.3368 42.2504 12.6514C42.2504 14.9661 41.9875 15.6981 41.7666 15.9171Z" fill="#131313"/>
<path d="M57.3321 13.278C57.6212 12.7005 57.7532 12.049 57.7141 11.3963C57.7537 10.5553 57.521 9.72525 57.0555 9.04411C56.8295 8.74394 56.5394 8.5053 56.2095 8.34778C55.8792 8.19032 55.5186 8.11857 55.1575 8.13851H46.8247V18.1353H48.4846V14.607H53.9348L55.9601 18.1353H57.8247L55.6945 14.4423C56.3729 14.2608 56.9642 13.8188 57.354 13.2016L57.3321 13.278ZM48.5012 9.67333H54.6377C54.9952 9.64129 55.3532 9.72977 55.6611 9.92615C55.8322 10.1058 55.9627 10.325 56.041 10.5667C56.1198 10.8084 56.1448 11.0661 56.1151 11.3198C56.1459 11.5755 56.1198 11.8353 56.0394 12.0784C55.9585 12.3215 55.8255 12.541 55.6501 12.7194C55.3443 12.9106 54.991 12.9969 54.6377 12.9663H48.5012V9.67333Z" fill="#131313"/>
<path d="M170.333 13.278C170.621 12.7005 170.754 12.049 170.714 11.3963C170.754 10.5553 170.522 9.72525 170.056 9.04411C169.83 8.74394 169.54 8.5053 169.21 8.34778C168.88 8.19032 168.519 8.11857 168.158 8.13851H159.825V18.1353H161.485V14.607H166.935L168.96 18.1353H170.825L168.694 14.4423C169.373 14.2608 169.964 13.8188 170.354 13.2016L170.333 13.278ZM161.501 9.67333H167.638C167.995 9.64248 168.353 9.7309 168.662 9.92615C168.833 10.1058 168.963 10.325 169.041 10.5667C169.12 10.8084 169.145 11.0661 169.115 11.3198C169.145 11.5754 169.118 11.8349 169.038 12.0777C168.957 12.3206 168.824 12.5402 168.65 12.7194C168.345 12.9106 167.991 12.9969 167.638 12.9663H161.501V9.67333Z" fill="#131313"/>
<path d="M61.8247 8.13525H59.8247V18.1353H61.8247V8.13525Z" fill="#131313"/>
<path d="M63.8247 9.73245H68.0592V18.1353H69.6005V9.73245H73.8247V8.13525H63.8247V9.73245Z" fill="#131313"/>
<path d="M111.822 15.9802L107.362 8.13525H104.825V18.1353H106.396V9.73245H106.433L111.296 18.0648L111.333 18.1353H112.3L117.2 9.73245H117.248V18.1353H118.825V8.13525H116.281L111.822 15.9802Z" fill="#131313"/>
<path d="M131.154 7.5721C129.901 7.22491 128.615 7.08358 127.33 7.15202C126.044 7.08707 124.756 7.23052 123.502 7.57843C123.152 7.69278 122.833 7.91279 122.575 8.21709C122.318 8.52138 122.131 8.89966 122.033 9.31535C121.859 10.4209 121.794 11.5466 121.838 12.67C121.793 13.7964 121.864 14.925 122.048 16.031C122.151 16.4308 122.338 16.7928 122.59 17.0834C122.842 17.3741 123.152 17.5837 123.491 17.6927C124.743 18.0425 126.03 18.186 127.314 18.1191C128.605 18.1864 129.896 18.043 131.154 17.6927C131.499 17.5831 131.815 17.3691 132.07 17.0713C132.326 16.7736 132.512 16.4023 132.612 15.9934C132.788 14.8902 132.855 13.7665 132.812 12.645C132.856 11.5145 132.785 10.3818 132.601 9.27143C132.499 8.86351 132.31 8.49343 132.055 8.19612C131.798 7.89881 131.483 7.6841 131.138 7.5721H131.154ZM130.764 15.9119C130.537 16.1376 129.752 16.4073 127.314 16.4073C124.876 16.4073 124.097 16.1376 123.87 15.9056C123.644 15.6736 123.386 14.9337 123.386 12.6387C123.386 10.3437 123.644 9.57242 123.865 9.35294C124.086 9.13347 124.866 8.85761 127.314 8.85761C129.763 8.85761 130.548 9.12721 130.769 9.35294C130.99 9.57868 131.248 10.3186 131.248 12.6387C131.248 14.9588 130.985 15.6924 130.764 15.9119Z" fill="#131313"/>
<path d="M134.825 9.73245H139.059V18.1353H140.601V9.73245H144.825V8.13525H134.825V9.73245Z" fill="#131313"/>
<path d="M155.14 7.57108C153.891 7.22485 152.609 7.08384 151.328 7.15188C150.043 7.08648 148.757 7.2296 147.505 7.57733C147.156 7.69148 146.838 7.91094 146.581 8.21455C146.324 8.51816 146.137 8.89565 146.038 9.31035C145.86 10.4126 145.793 11.5363 145.839 12.6575C145.795 13.7813 145.866 14.9072 146.049 16.0109C146.15 16.4166 146.337 16.7845 146.592 17.0792C146.847 17.374 147.162 17.5857 147.505 17.6939C148.757 18.0428 150.043 18.1859 151.328 18.1193C152.616 18.1861 153.905 18.043 155.161 17.6939C155.505 17.5813 155.819 17.3666 156.073 17.07C156.328 16.7735 156.515 16.4047 156.617 15.9984C156.79 14.8973 156.855 13.7763 156.812 12.6575C156.855 11.5295 156.785 10.3994 156.602 9.29159C156.499 8.88453 156.311 8.51528 156.055 8.2187C155.8 7.92206 155.484 7.70777 155.14 7.59609V7.57108ZM154.767 15.9171C154.541 16.1423 153.763 16.4113 151.328 16.4113C148.894 16.4113 148.11 16.1423 147.884 15.9108C147.658 15.6793 147.4 14.9411 147.4 12.6512C147.4 10.3614 147.658 9.5919 147.879 9.37292C148.1 9.15394 148.883 8.87864 151.328 8.87864C153.773 8.87864 154.551 9.14769 154.772 9.37292C154.993 9.59815 155.25 10.3364 155.25 12.6512C155.25 14.9661 154.987 15.6981 154.767 15.9171Z" fill="#131313"/>
<path d="M181.783 11.8435C181.265 11.5746 179.996 11.4431 177.97 11.4431C177.047 11.5089 176.122 11.3966 175.234 11.1112C175.036 11.0045 174.873 10.833 174.766 10.6201C174.66 10.4072 174.615 10.1632 174.638 9.92127C174.638 9.23477 175.006 8.85151 175.773 8.7485C176.037 8.71421 176.778 8.69706 177.97 8.69706C179.343 8.69706 180.219 8.79429 180.561 9.00024C180.903 9.20619 181.079 9.65816 181.079 10.4133V10.5563H182.592V10.4133C182.592 9.19476 182.333 8.35952 181.825 7.9247C181.198 7.39271 179.939 7.13525 177.986 7.13525C176.032 7.13525 174.768 7.30114 174.12 7.63867C173.473 7.9762 173.115 8.78286 173.115 9.92704C173.115 11.0025 173.395 11.7577 173.949 12.181C174.648 12.7531 175.97 12.9934 177.986 12.9934C180.001 12.9934 180.638 13.1135 180.867 13.2165C181.094 13.3195 181.301 13.7027 181.301 14.2863C181.329 14.5131 181.284 14.7435 181.174 14.9377C181.065 15.132 180.897 15.2779 180.7 15.3504C179.717 15.5633 178.712 15.644 177.711 15.5907C175.763 15.5907 175.079 15.419 174.851 15.2703C174.535 15.0757 174.379 14.5552 174.379 13.72V13.5769H172.825V13.7027C172.825 15.0586 173.069 15.9225 173.566 16.3458C174.193 16.8721 175.54 17.1353 177.68 17.1353C179.649 17.1353 180.923 16.9865 181.581 16.6776C182.405 16.2943 182.825 15.4876 182.825 14.2692C182.825 13.0506 182.472 12.1639 181.789 11.8206" fill="#131313"/>
<path d="M89.2847 28.7C89.2284 28.7001 89.1735 28.6835 89.1247 28.652C79.7796 20.5395 80.0568 5.39544 80.0568 5.23331V5.16126C80.0502 4.92695 80.0955 4.69446 80.1886 4.48478C80.2816 4.2751 80.42 4.09485 80.5905 3.9603C83.1668 1.6965 88.0577 1.55839 88.9914 1.55839H89.6525C90.6073 1.55839 95.4826 1.67248 98.0539 3.9603C98.2254 4.09368 98.3643 4.2737 98.4573 4.48366C98.5509 4.69362 98.5952 4.9267 98.5871 5.16126V5.22731C98.5871 5.37743 98.8593 20.5215 89.5192 28.646C89.4734 28.6734 89.4221 28.6878 89.3702 28.688H89.2903L89.2847 28.7ZM88.9914 0.147264C87.5566 0.147264 82.6652 0.345421 79.849 2.81939C79.5376 3.07828 79.283 3.41443 79.1054 3.80179C78.9279 4.18915 78.8318 4.61733 78.8247 5.05317V5.11922C78.8217 8.287 79.193 11.4412 79.929 14.4987C81.4598 21.0379 84.3827 26.3281 88.3777 29.7989C88.6388 30.0208 88.9577 30.1391 89.2847 30.1351H89.3647C89.6867 30.1399 90.0016 30.0261 90.2607 29.8109C94.2612 26.3281 97.1951 21.0379 98.7204 14.4987C99.4559 11.4369 99.8272 8.27892 99.8247 5.10721V5.04116C99.8192 4.60565 99.7241 4.17747 99.5475 3.79001C99.3709 3.40254 99.1169 3.06626 98.806 2.80738C95.9892 0.333412 91.0928 0.135254 89.658 0.135254L88.9914 0.147264Z" fill="#131313"/>
<path d="M84.8557 4.13525H92.8247V8.13528C92.8247 8.13528 92.234 7.72501 91.9001 7.53192C91.5662 7.3389 88.6682 7.42938 88.6682 7.42938V9.99347L92.2238 10.0357V13.9814C92.2238 13.9814 91.8283 13.173 91.3965 13.173H88.6682V24.1353L85.8419 20.9256C85.9519 20.88 86.0455 20.7919 86.107 20.6757C86.1685 20.5595 86.1947 20.4221 86.1811 20.2861C86.1351 19.7733 85.3384 6.88034 85.3384 5.80642C85.3583 5.20132 85.1736 4.6116 84.8247 4.16542" fill="#131313"/>
</svg>
